%TF.GenerationSoftware,KiCad,Pcbnew,(6.0.1)*%
%TF.CreationDate,2023-01-10T16:42:07+03:00*%
%TF.ProjectId,STM32RF,53544d33-3252-4462-9e6b-696361645f70,0.1v*%
%TF.SameCoordinates,Original*%
%TF.FileFunction,Legend,Top*%
%TF.FilePolarity,Positive*%
%FSLAX46Y46*%
G04 Gerber Fmt 4.6, Leading zero omitted, Abs format (unit mm)*
G04 Created by KiCad (PCBNEW (6.0.1)) date 2023-01-10 16:42:07*
%MOMM*%
%LPD*%
G01*
G04 APERTURE LIST*
%ADD10C,0.120000*%
G04 APERTURE END LIST*
D10*
%TO.C,C16*%
X64660000Y-28607836D02*
X64660000Y-28392164D01*
X63940000Y-28607836D02*
X63940000Y-28392164D01*
%TO.C,D1*%
X44565000Y-22627500D02*
X44565000Y-24912500D01*
X46035000Y-22627500D02*
X44565000Y-22627500D01*
X46035000Y-24912500D02*
X46035000Y-22627500D01*
%TO.C,C1*%
X37490000Y-26559420D02*
X37490000Y-26840580D01*
X38510000Y-26559420D02*
X38510000Y-26840580D01*
%TO.C,F1*%
X33497936Y-23090000D02*
X34702064Y-23090000D01*
X33497936Y-24910000D02*
X34702064Y-24910000D01*
%TO.C,C13*%
X58560000Y-34712164D02*
X58560000Y-34927836D01*
X57840000Y-34712164D02*
X57840000Y-34927836D01*
%TO.C,C8*%
X54959420Y-24810000D02*
X55240580Y-24810000D01*
X54959420Y-23790000D02*
X55240580Y-23790000D01*
%TO.C,J1*%
X31200000Y-26190000D02*
X31460000Y-26190000D01*
X31460000Y-33810000D02*
X31200000Y-33810000D01*
X35510000Y-33810000D02*
X33740000Y-33810000D01*
X35510000Y-26190000D02*
X35510000Y-26570000D01*
X35510000Y-33810000D02*
X35510000Y-33430000D01*
X33740000Y-26190000D02*
X35510000Y-26190000D01*
%TO.C,C15*%
X62692164Y-29260000D02*
X62907836Y-29260000D01*
X62692164Y-28540000D02*
X62907836Y-28540000D01*
%TO.C,C3*%
X35587836Y-35940000D02*
X35372164Y-35940000D01*
X35587836Y-36660000D02*
X35372164Y-36660000D01*
%TO.C,U2*%
X40400000Y-28940000D02*
X41200000Y-28940000D01*
X40400000Y-32060000D02*
X42200000Y-32060000D01*
X40400000Y-32060000D02*
X39600000Y-32060000D01*
X40400000Y-28940000D02*
X39600000Y-28940000D01*
%TO.C,C5*%
X50460000Y-25307836D02*
X50460000Y-25092164D01*
X49740000Y-25307836D02*
X49740000Y-25092164D01*
%TO.C,C17*%
X61692164Y-31540000D02*
X61907836Y-31540000D01*
X61692164Y-32260000D02*
X61907836Y-32260000D01*
%TO.C,R1*%
X51920000Y-25353641D02*
X51920000Y-25046359D01*
X52680000Y-25353641D02*
X52680000Y-25046359D01*
%TO.C,C14*%
X52040000Y-34987836D02*
X52040000Y-34772164D01*
X52760000Y-34987836D02*
X52760000Y-34772164D01*
%TO.C,Y1*%
X57300000Y-33350000D02*
X53300000Y-33350000D01*
X57300000Y-36650000D02*
X57300000Y-33350000D01*
%TO.C,C18*%
X61692164Y-30540000D02*
X61907836Y-30540000D01*
X61692164Y-31260000D02*
X61907836Y-31260000D01*
%TO.C,J3*%
X42440000Y-33070000D02*
X37425000Y-33070000D01*
X43895000Y-34960000D02*
X43895000Y-35162470D01*
X42440000Y-34763471D02*
X42440000Y-34906529D01*
X42493471Y-34960000D02*
X42636529Y-34960000D01*
X37425000Y-33070000D02*
X37425000Y-33892470D01*
X43895000Y-35777530D02*
X43895000Y-36600000D01*
X42440000Y-33070000D02*
X42440000Y-33636529D01*
X43895000Y-36600000D02*
X37425000Y-36600000D01*
X37425000Y-34507530D02*
X37425000Y-35162470D01*
X43960000Y-33070000D02*
X43960000Y-34200000D01*
X37425000Y-35777530D02*
X37425000Y-36600000D01*
X43200000Y-33070000D02*
X43960000Y-33070000D01*
X43763471Y-34960000D02*
X43895000Y-34960000D01*
%TO.C,U1*%
X39340000Y-26600000D02*
X39340000Y-25950000D01*
X39340000Y-26600000D02*
X39340000Y-28275000D01*
X42460000Y-26600000D02*
X42460000Y-27250000D01*
X42460000Y-26600000D02*
X42460000Y-25950000D01*
%TO.C,R2*%
X42537258Y-23922500D02*
X42062742Y-23922500D01*
X42537258Y-22877500D02*
X42062742Y-22877500D01*
%TO.C,D2*%
X46265000Y-22627500D02*
X46265000Y-24912500D01*
X47735000Y-22627500D02*
X46265000Y-22627500D01*
X47735000Y-24912500D02*
X47735000Y-22627500D01*
%TO.C,C4*%
X50840000Y-25307836D02*
X50840000Y-25092164D01*
X51560000Y-25307836D02*
X51560000Y-25092164D01*
%TO.C,R3*%
X49662742Y-23722500D02*
X50137258Y-23722500D01*
X49662742Y-22677500D02*
X50137258Y-22677500D01*
%TO.C,C7*%
X48040000Y-25327836D02*
X48040000Y-25112164D01*
X48760000Y-25327836D02*
X48760000Y-25112164D01*
%TO.C,U4*%
X53415000Y-31210000D02*
X52690000Y-31210000D01*
X52690000Y-31210000D02*
X52690000Y-30485000D01*
X56910000Y-31210000D02*
X56910000Y-30485000D01*
X53415000Y-26990000D02*
X52690000Y-26990000D01*
X56185000Y-26990000D02*
X56910000Y-26990000D01*
X56185000Y-31210000D02*
X56910000Y-31210000D01*
X56910000Y-26990000D02*
X56910000Y-27715000D01*
%TO.C,C11*%
X55592164Y-25540000D02*
X55807836Y-25540000D01*
X55592164Y-26260000D02*
X55807836Y-26260000D01*
%TO.C,C10*%
X57940000Y-25607836D02*
X57940000Y-25392164D01*
X58660000Y-25607836D02*
X58660000Y-25392164D01*
%TO.C,J2*%
X65690000Y-28860000D02*
X65690000Y-27750000D01*
X69400000Y-28860000D02*
X69400000Y-27750000D01*
X64640000Y-29450000D02*
X64640000Y-29950000D01*
X65690000Y-31650000D02*
X65690000Y-30540000D01*
X65140000Y-29700000D02*
X64640000Y-29450000D01*
X69400000Y-31650000D02*
X69400000Y-30540000D01*
X64640000Y-29950000D02*
X65140000Y-29700000D01*
%TO.C,C6*%
X46007836Y-33460000D02*
X45792164Y-33460000D01*
X46007836Y-32740000D02*
X45792164Y-32740000D01*
%TO.C,C9*%
X53352164Y-32140000D02*
X53567836Y-32140000D01*
X53352164Y-32860000D02*
X53567836Y-32860000D01*
%TO.C,C12*%
X53907836Y-26260000D02*
X53692164Y-26260000D01*
X53907836Y-25540000D02*
X53692164Y-25540000D01*
%TO.C,U3*%
X45440000Y-32060000D02*
X45915000Y-32060000D01*
X50660000Y-27315000D02*
X50660000Y-26840000D01*
X45440000Y-31585000D02*
X45440000Y-32060000D01*
X45440000Y-27315000D02*
X45440000Y-26840000D01*
X50660000Y-31585000D02*
X50660000Y-32060000D01*
X50660000Y-32060000D02*
X50185000Y-32060000D01*
X45440000Y-26840000D02*
X45915000Y-26840000D01*
%TO.C,C2*%
X44110000Y-26840580D02*
X44110000Y-26559420D01*
X43090000Y-26840580D02*
X43090000Y-26559420D01*
%TO.C,FB1*%
X37900378Y-24260000D02*
X38699622Y-24260000D01*
X37900378Y-23140000D02*
X38699622Y-23140000D01*
%TO.C,R4*%
X57580000Y-25653641D02*
X57580000Y-25346359D01*
X56820000Y-25653641D02*
X56820000Y-25346359D01*
%TO.C,R5*%
X56153641Y-32880000D02*
X55846359Y-32880000D01*
X56153641Y-32120000D02*
X55846359Y-32120000D01*
%TD*%
M02*
