%TF.GenerationSoftware,KiCad,Pcbnew,(6.0.1)*%
%TF.CreationDate,2023-01-10T16:42:07+03:00*%
%TF.ProjectId,STM32RF,53544d33-3252-4462-9e6b-696361645f70,0.1v*%
%TF.SameCoordinates,Original*%
%TF.FileFunction,Paste,Top*%
%TF.FilePolarity,Positive*%
%FSLAX46Y46*%
G04 Gerber Fmt 4.6, Leading zero omitted, Abs format (unit mm)*
G04 Created by KiCad (PCBNEW (6.0.1)) date 2023-01-10 16:42:07*
%MOMM*%
%LPD*%
G01*
G04 APERTURE LIST*
G04 Aperture macros list*
%AMRoundRect*
0 Rectangle with rounded corners*
0 $1 Rounding radius*
0 $2 $3 $4 $5 $6 $7 $8 $9 X,Y pos of 4 corners*
0 Add a 4 corners polygon primitive as box body*
4,1,4,$2,$3,$4,$5,$6,$7,$8,$9,$2,$3,0*
0 Add four circle primitives for the rounded corners*
1,1,$1+$1,$2,$3*
1,1,$1+$1,$4,$5*
1,1,$1+$1,$6,$7*
1,1,$1+$1,$8,$9*
0 Add four rect primitives between the rounded corners*
20,1,$1+$1,$2,$3,$4,$5,0*
20,1,$1+$1,$4,$5,$6,$7,0*
20,1,$1+$1,$6,$7,$8,$9,0*
20,1,$1+$1,$8,$9,$2,$3,0*%
G04 Aperture macros list end*
%ADD10RoundRect,0.147500X-0.147500X-0.172500X0.147500X-0.172500X0.147500X0.172500X-0.147500X0.172500X0*%
%ADD11RoundRect,0.140000X0.170000X-0.140000X0.170000X0.140000X-0.170000X0.140000X-0.170000X-0.140000X0*%
%ADD12RoundRect,0.218750X-0.256250X0.218750X-0.256250X-0.218750X0.256250X-0.218750X0.256250X0.218750X0*%
%ADD13RoundRect,0.225000X-0.250000X0.225000X-0.250000X-0.225000X0.250000X-0.225000X0.250000X0.225000X0*%
%ADD14RoundRect,0.250000X-0.375000X-0.625000X0.375000X-0.625000X0.375000X0.625000X-0.375000X0.625000X0*%
%ADD15RoundRect,0.140000X-0.170000X0.140000X-0.170000X-0.140000X0.170000X-0.140000X0.170000X0.140000X0*%
%ADD16RoundRect,0.225000X-0.225000X-0.250000X0.225000X-0.250000X0.225000X0.250000X-0.225000X0.250000X0*%
%ADD17R,1.380000X0.450000*%
%ADD18R,1.900000X1.000000*%
%ADD19R,1.550000X1.425000*%
%ADD20R,1.300000X1.650000*%
%ADD21R,1.900000X1.800000*%
%ADD22RoundRect,0.140000X-0.140000X-0.170000X0.140000X-0.170000X0.140000X0.170000X-0.140000X0.170000X0*%
%ADD23RoundRect,0.140000X0.140000X0.170000X-0.140000X0.170000X-0.140000X-0.170000X0.140000X-0.170000X0*%
%ADD24RoundRect,0.150000X0.512500X0.150000X-0.512500X0.150000X-0.512500X-0.150000X0.512500X-0.150000X0*%
%ADD25RoundRect,0.135000X0.185000X-0.135000X0.185000X0.135000X-0.185000X0.135000X-0.185000X-0.135000X0*%
%ADD26R,1.400000X1.200000*%
%ADD27RoundRect,0.147500X0.172500X-0.147500X0.172500X0.147500X-0.172500X0.147500X-0.172500X-0.147500X0*%
%ADD28RoundRect,0.150000X0.150000X-0.587500X0.150000X0.587500X-0.150000X0.587500X-0.150000X-0.587500X0*%
%ADD29RoundRect,0.200000X0.200000X0.275000X-0.200000X0.275000X-0.200000X-0.275000X0.200000X-0.275000X0*%
%ADD30RoundRect,0.200000X-0.200000X-0.275000X0.200000X-0.275000X0.200000X0.275000X-0.200000X0.275000X0*%
%ADD31RoundRect,0.250000X-0.255000X-0.255000X0.255000X-0.255000X0.255000X0.255000X-0.255000X0.255000X0*%
%ADD32RoundRect,0.062500X-0.350000X-0.062500X0.350000X-0.062500X0.350000X0.062500X-0.350000X0.062500X0*%
%ADD33RoundRect,0.062500X-0.062500X-0.350000X0.062500X-0.350000X0.062500X0.350000X-0.062500X0.350000X0*%
%ADD34RoundRect,0.147500X-0.172500X0.147500X-0.172500X-0.147500X0.172500X-0.147500X0.172500X0.147500X0*%
%ADD35R,3.600000X1.270000*%
%ADD36R,4.200000X1.350000*%
%ADD37RoundRect,0.232500X-0.232500X0.232500X-0.232500X-0.232500X0.232500X-0.232500X0.232500X0.232500X0*%
%ADD38RoundRect,0.062500X-0.062500X0.375000X-0.062500X-0.375000X0.062500X-0.375000X0.062500X0.375000X0*%
%ADD39RoundRect,0.062500X-0.375000X0.062500X-0.375000X-0.062500X0.375000X-0.062500X0.375000X0.062500X0*%
%ADD40RoundRect,0.225000X0.250000X-0.225000X0.250000X0.225000X-0.250000X0.225000X-0.250000X-0.225000X0*%
%ADD41RoundRect,0.218750X-0.218750X-0.381250X0.218750X-0.381250X0.218750X0.381250X-0.218750X0.381250X0*%
%ADD42RoundRect,0.135000X0.135000X0.185000X-0.135000X0.185000X-0.135000X-0.185000X0.135000X-0.185000X0*%
G04 APERTURE END LIST*
D10*
%TO.C,L1*%
X60250000Y-28900000D03*
X61220000Y-28900000D03*
%TD*%
D11*
%TO.C,C16*%
X64300000Y-28980000D03*
X64300000Y-28020000D03*
%TD*%
D12*
%TO.C,D1*%
X45300000Y-23325000D03*
X45300000Y-24900000D03*
%TD*%
D13*
%TO.C,C1*%
X38000000Y-25925000D03*
X38000000Y-27475000D03*
%TD*%
D14*
%TO.C,F1*%
X32700000Y-24000000D03*
X35500000Y-24000000D03*
%TD*%
D15*
%TO.C,C13*%
X58200000Y-34340000D03*
X58200000Y-35300000D03*
%TD*%
D16*
%TO.C,C8*%
X54325000Y-24300000D03*
X55875000Y-24300000D03*
%TD*%
D17*
%TO.C,J1*%
X35260000Y-28700000D03*
X35260000Y-29350000D03*
X35260000Y-30000000D03*
X35260000Y-30650000D03*
X35260000Y-31300000D03*
D18*
X32600000Y-31550000D03*
D19*
X35175000Y-32487500D03*
X35175000Y-27512500D03*
D20*
X32600000Y-33375000D03*
D21*
X32600000Y-28850000D03*
D20*
X32600000Y-26625000D03*
%TD*%
D22*
%TO.C,C15*%
X62320000Y-28900000D03*
X63280000Y-28900000D03*
%TD*%
D23*
%TO.C,C3*%
X35960000Y-36300000D03*
X35000000Y-36300000D03*
%TD*%
D24*
%TO.C,U2*%
X41537500Y-31450000D03*
X41537500Y-30500000D03*
X41537500Y-29550000D03*
X39262500Y-29550000D03*
X39262500Y-30500000D03*
X39262500Y-31450000D03*
%TD*%
D11*
%TO.C,C5*%
X50100000Y-25680000D03*
X50100000Y-24720000D03*
%TD*%
D22*
%TO.C,C17*%
X61320000Y-31900000D03*
X62280000Y-31900000D03*
%TD*%
D25*
%TO.C,R1*%
X52300000Y-25710000D03*
X52300000Y-24690000D03*
%TD*%
D11*
%TO.C,C14*%
X52400000Y-35360000D03*
X52400000Y-34400000D03*
%TD*%
D26*
%TO.C,Y1*%
X56400000Y-34150000D03*
X54200000Y-34150000D03*
X54200000Y-35850000D03*
X56400000Y-35850000D03*
%TD*%
D22*
%TO.C,C18*%
X61320000Y-30900000D03*
X62280000Y-30900000D03*
%TD*%
D27*
%TO.C,L3*%
X60220000Y-30870000D03*
X60220000Y-29900000D03*
%TD*%
D28*
%TO.C,U1*%
X39950000Y-27537500D03*
X41850000Y-27537500D03*
X40900000Y-25662500D03*
%TD*%
D29*
%TO.C,R2*%
X43125000Y-23400000D03*
X41475000Y-23400000D03*
%TD*%
D12*
%TO.C,D2*%
X47000000Y-23325000D03*
X47000000Y-24900000D03*
%TD*%
D11*
%TO.C,C4*%
X51200000Y-25680000D03*
X51200000Y-24720000D03*
%TD*%
D30*
%TO.C,R3*%
X49075000Y-23200000D03*
X50725000Y-23200000D03*
%TD*%
D11*
%TO.C,C7*%
X48400000Y-25700000D03*
X48400000Y-24740000D03*
%TD*%
D31*
%TO.C,U4*%
X55425000Y-29725000D03*
X54175000Y-28475000D03*
X54175000Y-29725000D03*
X55425000Y-28475000D03*
D32*
X52862500Y-28100000D03*
X52862500Y-28600000D03*
X52862500Y-29100000D03*
X52862500Y-29600000D03*
X52862500Y-30100000D03*
D33*
X53800000Y-31037500D03*
X54300000Y-31037500D03*
X54800000Y-31037500D03*
X55300000Y-31037500D03*
X55800000Y-31037500D03*
D32*
X56737500Y-30100000D03*
X56737500Y-29600000D03*
X56737500Y-29100000D03*
X56737500Y-28600000D03*
X56737500Y-28100000D03*
D33*
X55800000Y-27162500D03*
X55300000Y-27162500D03*
X54800000Y-27162500D03*
X54300000Y-27162500D03*
X53800000Y-27162500D03*
%TD*%
D22*
%TO.C,C11*%
X55220000Y-25900000D03*
X56180000Y-25900000D03*
%TD*%
D11*
%TO.C,C10*%
X58300000Y-25980000D03*
X58300000Y-25020000D03*
%TD*%
D34*
%TO.C,L2*%
X59200000Y-28915000D03*
X59200000Y-29885000D03*
%TD*%
D35*
%TO.C,J2*%
X67600000Y-29700000D03*
D36*
X67400000Y-26875000D03*
X67400000Y-32525000D03*
%TD*%
D23*
%TO.C,C6*%
X46380000Y-33100000D03*
X45420000Y-33100000D03*
%TD*%
D22*
%TO.C,C9*%
X52980000Y-32500000D03*
X53940000Y-32500000D03*
%TD*%
D23*
%TO.C,C12*%
X54280000Y-25900000D03*
X53320000Y-25900000D03*
%TD*%
D37*
%TO.C,U3*%
X49200000Y-29450000D03*
X46900000Y-29450000D03*
X49200000Y-28300000D03*
X49200000Y-30600000D03*
X46900000Y-28300000D03*
X48050000Y-30600000D03*
X48050000Y-28300000D03*
X46900000Y-30600000D03*
X48050000Y-29450000D03*
D38*
X49800000Y-27012500D03*
X49300000Y-27012500D03*
X48800000Y-27012500D03*
X48300000Y-27012500D03*
X47800000Y-27012500D03*
X47300000Y-27012500D03*
X46800000Y-27012500D03*
X46300000Y-27012500D03*
D39*
X45612500Y-27700000D03*
X45612500Y-28200000D03*
X45612500Y-28700000D03*
X45612500Y-29200000D03*
X45612500Y-29700000D03*
X45612500Y-30200000D03*
X45612500Y-30700000D03*
X45612500Y-31200000D03*
D38*
X46300000Y-31887500D03*
X46800000Y-31887500D03*
X47300000Y-31887500D03*
X47800000Y-31887500D03*
X48300000Y-31887500D03*
X48800000Y-31887500D03*
X49300000Y-31887500D03*
X49800000Y-31887500D03*
D39*
X50487500Y-31200000D03*
X50487500Y-30700000D03*
X50487500Y-30200000D03*
X50487500Y-29700000D03*
X50487500Y-29200000D03*
X50487500Y-28700000D03*
X50487500Y-28200000D03*
X50487500Y-27700000D03*
%TD*%
D40*
%TO.C,C2*%
X43600000Y-27475000D03*
X43600000Y-25925000D03*
%TD*%
D41*
%TO.C,FB1*%
X37237500Y-23700000D03*
X39362500Y-23700000D03*
%TD*%
D25*
%TO.C,R4*%
X57200000Y-26010000D03*
X57200000Y-24990000D03*
%TD*%
D42*
%TO.C,R5*%
X56510000Y-32500000D03*
X55490000Y-32500000D03*
%TD*%
M02*
