%TF.GenerationSoftware,KiCad,Pcbnew,(6.0.1)*%
%TF.CreationDate,2023-01-10T16:42:07+03:00*%
%TF.ProjectId,STM32RF,53544d33-3252-4462-9e6b-696361645f70,0.1v*%
%TF.SameCoordinates,Original*%
%TF.FileFunction,Copper,L1,Top*%
%TF.FilePolarity,Positive*%
%FSLAX46Y46*%
G04 Gerber Fmt 4.6, Leading zero omitted, Abs format (unit mm)*
G04 Created by KiCad (PCBNEW (6.0.1)) date 2023-01-10 16:42:07*
%MOMM*%
%LPD*%
G01*
G04 APERTURE LIST*
G04 Aperture macros list*
%AMRoundRect*
0 Rectangle with rounded corners*
0 $1 Rounding radius*
0 $2 $3 $4 $5 $6 $7 $8 $9 X,Y pos of 4 corners*
0 Add a 4 corners polygon primitive as box body*
4,1,4,$2,$3,$4,$5,$6,$7,$8,$9,$2,$3,0*
0 Add four circle primitives for the rounded corners*
1,1,$1+$1,$2,$3*
1,1,$1+$1,$4,$5*
1,1,$1+$1,$6,$7*
1,1,$1+$1,$8,$9*
0 Add four rect primitives between the rounded corners*
20,1,$1+$1,$2,$3,$4,$5,0*
20,1,$1+$1,$4,$5,$6,$7,0*
20,1,$1+$1,$6,$7,$8,$9,0*
20,1,$1+$1,$8,$9,$2,$3,0*%
G04 Aperture macros list end*
%TA.AperFunction,NonConductor*%
%ADD10C,0.200000*%
%TD*%
%TA.AperFunction,SMDPad,CuDef*%
%ADD11RoundRect,0.147500X-0.147500X-0.172500X0.147500X-0.172500X0.147500X0.172500X-0.147500X0.172500X0*%
%TD*%
%TA.AperFunction,SMDPad,CuDef*%
%ADD12RoundRect,0.140000X0.170000X-0.140000X0.170000X0.140000X-0.170000X0.140000X-0.170000X-0.140000X0*%
%TD*%
%TA.AperFunction,SMDPad,CuDef*%
%ADD13RoundRect,0.218750X-0.256250X0.218750X-0.256250X-0.218750X0.256250X-0.218750X0.256250X0.218750X0*%
%TD*%
%TA.AperFunction,SMDPad,CuDef*%
%ADD14RoundRect,0.225000X-0.250000X0.225000X-0.250000X-0.225000X0.250000X-0.225000X0.250000X0.225000X0*%
%TD*%
%TA.AperFunction,SMDPad,CuDef*%
%ADD15RoundRect,0.250000X-0.375000X-0.625000X0.375000X-0.625000X0.375000X0.625000X-0.375000X0.625000X0*%
%TD*%
%TA.AperFunction,SMDPad,CuDef*%
%ADD16RoundRect,0.140000X-0.170000X0.140000X-0.170000X-0.140000X0.170000X-0.140000X0.170000X0.140000X0*%
%TD*%
%TA.AperFunction,SMDPad,CuDef*%
%ADD17RoundRect,0.225000X-0.225000X-0.250000X0.225000X-0.250000X0.225000X0.250000X-0.225000X0.250000X0*%
%TD*%
%TA.AperFunction,SMDPad,CuDef*%
%ADD18R,1.380000X0.450000*%
%TD*%
%TA.AperFunction,SMDPad,CuDef*%
%ADD19R,1.900000X1.000000*%
%TD*%
%TA.AperFunction,SMDPad,CuDef*%
%ADD20R,1.550000X1.425000*%
%TD*%
%TA.AperFunction,SMDPad,CuDef*%
%ADD21R,1.300000X1.650000*%
%TD*%
%TA.AperFunction,SMDPad,CuDef*%
%ADD22R,1.900000X1.800000*%
%TD*%
%TA.AperFunction,SMDPad,CuDef*%
%ADD23RoundRect,0.140000X-0.140000X-0.170000X0.140000X-0.170000X0.140000X0.170000X-0.140000X0.170000X0*%
%TD*%
%TA.AperFunction,SMDPad,CuDef*%
%ADD24RoundRect,0.140000X0.140000X0.170000X-0.140000X0.170000X-0.140000X-0.170000X0.140000X-0.170000X0*%
%TD*%
%TA.AperFunction,SMDPad,CuDef*%
%ADD25RoundRect,0.150000X0.512500X0.150000X-0.512500X0.150000X-0.512500X-0.150000X0.512500X-0.150000X0*%
%TD*%
%TA.AperFunction,SMDPad,CuDef*%
%ADD26RoundRect,0.135000X0.185000X-0.135000X0.185000X0.135000X-0.185000X0.135000X-0.185000X-0.135000X0*%
%TD*%
%TA.AperFunction,SMDPad,CuDef*%
%ADD27R,1.400000X1.200000*%
%TD*%
%TA.AperFunction,ComponentPad*%
%ADD28R,1.000000X1.000000*%
%TD*%
%TA.AperFunction,ComponentPad*%
%ADD29O,1.000000X1.000000*%
%TD*%
%TA.AperFunction,SMDPad,CuDef*%
%ADD30RoundRect,0.147500X0.172500X-0.147500X0.172500X0.147500X-0.172500X0.147500X-0.172500X-0.147500X0*%
%TD*%
%TA.AperFunction,SMDPad,CuDef*%
%ADD31RoundRect,0.150000X0.150000X-0.587500X0.150000X0.587500X-0.150000X0.587500X-0.150000X-0.587500X0*%
%TD*%
%TA.AperFunction,SMDPad,CuDef*%
%ADD32RoundRect,0.200000X0.200000X0.275000X-0.200000X0.275000X-0.200000X-0.275000X0.200000X-0.275000X0*%
%TD*%
%TA.AperFunction,SMDPad,CuDef*%
%ADD33RoundRect,0.200000X-0.200000X-0.275000X0.200000X-0.275000X0.200000X0.275000X-0.200000X0.275000X0*%
%TD*%
%TA.AperFunction,SMDPad,CuDef*%
%ADD34RoundRect,0.062500X-0.350000X-0.062500X0.350000X-0.062500X0.350000X0.062500X-0.350000X0.062500X0*%
%TD*%
%TA.AperFunction,SMDPad,CuDef*%
%ADD35RoundRect,0.062500X-0.062500X-0.350000X0.062500X-0.350000X0.062500X0.350000X-0.062500X0.350000X0*%
%TD*%
%TA.AperFunction,SMDPad,CuDef*%
%ADD36R,2.500000X2.500000*%
%TD*%
%TA.AperFunction,SMDPad,CuDef*%
%ADD37RoundRect,0.147500X-0.172500X0.147500X-0.172500X-0.147500X0.172500X-0.147500X0.172500X0.147500X0*%
%TD*%
%TA.AperFunction,SMDPad,CuDef*%
%ADD38R,3.600000X1.270000*%
%TD*%
%TA.AperFunction,SMDPad,CuDef*%
%ADD39R,4.200000X1.350000*%
%TD*%
%TA.AperFunction,SMDPad,CuDef*%
%ADD40RoundRect,0.062500X-0.062500X0.375000X-0.062500X-0.375000X0.062500X-0.375000X0.062500X0.375000X0*%
%TD*%
%TA.AperFunction,SMDPad,CuDef*%
%ADD41RoundRect,0.062500X-0.375000X0.062500X-0.375000X-0.062500X0.375000X-0.062500X0.375000X0.062500X0*%
%TD*%
%TA.AperFunction,SMDPad,CuDef*%
%ADD42R,3.450000X3.450000*%
%TD*%
%TA.AperFunction,SMDPad,CuDef*%
%ADD43RoundRect,0.225000X0.250000X-0.225000X0.250000X0.225000X-0.250000X0.225000X-0.250000X-0.225000X0*%
%TD*%
%TA.AperFunction,SMDPad,CuDef*%
%ADD44RoundRect,0.218750X-0.218750X-0.381250X0.218750X-0.381250X0.218750X0.381250X-0.218750X0.381250X0*%
%TD*%
%TA.AperFunction,SMDPad,CuDef*%
%ADD45RoundRect,0.135000X0.135000X0.185000X-0.135000X0.185000X-0.135000X-0.185000X0.135000X-0.185000X0*%
%TD*%
%TA.AperFunction,ViaPad*%
%ADD46C,0.800000*%
%TD*%
%TA.AperFunction,ViaPad*%
%ADD47C,0.700000*%
%TD*%
%TA.AperFunction,Conductor*%
%ADD48C,0.261112*%
%TD*%
%TA.AperFunction,Conductor*%
%ADD49C,0.500000*%
%TD*%
%TA.AperFunction,Conductor*%
%ADD50C,0.750000*%
%TD*%
%TA.AperFunction,Conductor*%
%ADD51C,0.293370*%
%TD*%
%TA.AperFunction,Conductor*%
%ADD52C,0.300000*%
%TD*%
%TA.AperFunction,Conductor*%
%ADD53C,0.250000*%
%TD*%
G04 APERTURE END LIST*
D10*
X69596000Y-34671000D02*
X67691000Y-36576000D01*
X67691000Y-36576000D02*
X67300000Y-36576000D01*
X67300000Y-36576000D02*
X67300000Y-35800000D01*
X67300000Y-35800000D02*
X69088000Y-34139000D01*
X69088000Y-34139000D02*
X69088000Y-33909000D01*
X69088000Y-33909000D02*
X69596000Y-33909000D01*
X69596000Y-33909000D02*
X69596000Y-34671000D01*
G36*
X69596000Y-34671000D02*
G01*
X67691000Y-36576000D01*
X67300000Y-36576000D01*
X67300000Y-35800000D01*
X69088000Y-34139000D01*
X69088000Y-33909000D01*
X69596000Y-33909000D01*
X69596000Y-34671000D01*
G37*
X69596000Y-34671000D02*
X67691000Y-36576000D01*
X67300000Y-36576000D01*
X67300000Y-35800000D01*
X69088000Y-34139000D01*
X69088000Y-33909000D01*
X69596000Y-33909000D01*
X69596000Y-34671000D01*
X60600000Y-35800000D02*
X67300000Y-35800000D01*
X67300000Y-35800000D02*
X67300000Y-36600000D01*
X67300000Y-36600000D02*
X59800000Y-36600000D01*
X59800000Y-36600000D02*
X59800000Y-31800000D01*
X59800000Y-31800000D02*
X60600000Y-31800000D01*
X60600000Y-31800000D02*
X60600000Y-35800000D01*
G36*
X60600000Y-35800000D02*
G01*
X67300000Y-35800000D01*
X67300000Y-36600000D01*
X59800000Y-36600000D01*
X59800000Y-31800000D01*
X60600000Y-31800000D01*
X60600000Y-35800000D01*
G37*
X60600000Y-35800000D02*
X67300000Y-35800000D01*
X67300000Y-36600000D01*
X59800000Y-36600000D01*
X59800000Y-31800000D01*
X60600000Y-31800000D01*
X60600000Y-35800000D01*
X69600000Y-24500000D02*
X69600000Y-25600000D01*
X69600000Y-25600000D02*
X68800000Y-25600000D01*
X68800000Y-25600000D02*
X68800000Y-25300000D01*
X68800000Y-25300000D02*
X67100000Y-23500000D01*
X67100000Y-23500000D02*
X67100000Y-22600000D01*
X67100000Y-22600000D02*
X67800000Y-22600000D01*
X67800000Y-22600000D02*
X69600000Y-24500000D01*
G36*
X69600000Y-24500000D02*
G01*
X69600000Y-25600000D01*
X68800000Y-25600000D01*
X68800000Y-25300000D01*
X67100000Y-23500000D01*
X67100000Y-22600000D01*
X67800000Y-22600000D01*
X69600000Y-24500000D01*
G37*
X69600000Y-24500000D02*
X69600000Y-25600000D01*
X68800000Y-25600000D01*
X68800000Y-25300000D01*
X67100000Y-23500000D01*
X67100000Y-22600000D01*
X67800000Y-22600000D01*
X69600000Y-24500000D01*
X67800000Y-23400000D02*
X60600000Y-23400000D01*
X60600000Y-23400000D02*
X60600000Y-28100000D01*
X60600000Y-28100000D02*
X59800000Y-28100000D01*
X59800000Y-28100000D02*
X59800000Y-22600000D01*
X59800000Y-22600000D02*
X67800000Y-22600000D01*
X67800000Y-22600000D02*
X67800000Y-23400000D01*
G36*
X67800000Y-23400000D02*
G01*
X60600000Y-23400000D01*
X60600000Y-28100000D01*
X59800000Y-28100000D01*
X59800000Y-22600000D01*
X67800000Y-22600000D01*
X67800000Y-23400000D01*
G37*
X67800000Y-23400000D02*
X60600000Y-23400000D01*
X60600000Y-28100000D01*
X59800000Y-28100000D01*
X59800000Y-22600000D01*
X67800000Y-22600000D01*
X67800000Y-23400000D01*
D11*
%TO.P,L1,1*%
%TO.N,NRF_ANT2*%
X60250000Y-28900000D03*
%TO.P,L1,2*%
%TO.N,Net-(C15-Pad1)*%
X61220000Y-28900000D03*
%TD*%
D12*
%TO.P,C16,1*%
%TO.N,Net-(C15-Pad2)*%
X64300000Y-28980000D03*
%TO.P,C16,2*%
%TO.N,GND*%
X64300000Y-28020000D03*
%TD*%
D13*
%TO.P,D1,1,K*%
%TO.N,Net-(D1-Pad1)*%
X45300000Y-23325000D03*
%TO.P,D1,2,A*%
%TO.N,Net-(D1-Pad2)*%
X45300000Y-24900000D03*
%TD*%
D14*
%TO.P,C1,1*%
%TO.N,Net-(C1-Pad1)*%
X38000000Y-25925000D03*
%TO.P,C1,2*%
%TO.N,GND*%
X38000000Y-27475000D03*
%TD*%
D15*
%TO.P,F1,1*%
%TO.N,+5V*%
X32700000Y-24000000D03*
%TO.P,F1,2*%
%TO.N,Net-(F1-Pad2)*%
X35500000Y-24000000D03*
%TD*%
D16*
%TO.P,C13,1*%
%TO.N,NRF_XC1*%
X58200000Y-34340000D03*
%TO.P,C13,2*%
%TO.N,GND*%
X58200000Y-35300000D03*
%TD*%
D17*
%TO.P,C8,1*%
%TO.N,+3V3*%
X54325000Y-24300000D03*
%TO.P,C8,2*%
%TO.N,GND*%
X55875000Y-24300000D03*
%TD*%
D18*
%TO.P,J1,1,VBUS*%
%TO.N,+5V*%
X35260000Y-28700000D03*
%TO.P,J1,2,D-*%
%TO.N,USB_CONN_D-*%
X35260000Y-29350000D03*
%TO.P,J1,3,D+*%
%TO.N,USB_CONN_D+*%
X35260000Y-30000000D03*
%TO.P,J1,4,ID*%
%TO.N,unconnected-(J1-Pad4)*%
X35260000Y-30650000D03*
%TO.P,J1,5,GND*%
%TO.N,GND*%
X35260000Y-31300000D03*
D19*
%TO.P,J1,6,Shield*%
%TO.N,unconnected-(J1-Pad6)*%
X32600000Y-31550000D03*
D20*
X35175000Y-32487500D03*
X35175000Y-27512500D03*
D21*
X32600000Y-33375000D03*
D22*
X32600000Y-28850000D03*
D21*
X32600000Y-26625000D03*
%TD*%
D23*
%TO.P,C15,1*%
%TO.N,Net-(C15-Pad1)*%
X62320000Y-28900000D03*
%TO.P,C15,2*%
%TO.N,Net-(C15-Pad2)*%
X63280000Y-28900000D03*
%TD*%
D24*
%TO.P,C3,1*%
%TO.N,NRST*%
X35960000Y-36300000D03*
%TO.P,C3,2*%
%TO.N,GND*%
X35000000Y-36300000D03*
%TD*%
D25*
%TO.P,U2,1,I/O1*%
%TO.N,USB_D+*%
X41537500Y-31450000D03*
%TO.P,U2,2,GND*%
%TO.N,GND*%
X41537500Y-30500000D03*
%TO.P,U2,3,I/O2*%
%TO.N,USB_D-*%
X41537500Y-29550000D03*
%TO.P,U2,4,I/O2*%
%TO.N,USB_CONN_D-*%
X39262500Y-29550000D03*
%TO.P,U2,5,VBUS*%
%TO.N,+5V*%
X39262500Y-30500000D03*
%TO.P,U2,6,I/O1*%
%TO.N,USB_CONN_D+*%
X39262500Y-31450000D03*
%TD*%
D12*
%TO.P,C5,1*%
%TO.N,+3V3*%
X50100000Y-25680000D03*
%TO.P,C5,2*%
%TO.N,GND*%
X50100000Y-24720000D03*
%TD*%
D23*
%TO.P,C17,1*%
%TO.N,NRF_VDD_PA*%
X61320000Y-31900000D03*
%TO.P,C17,2*%
%TO.N,GND*%
X62280000Y-31900000D03*
%TD*%
D26*
%TO.P,R1,1*%
%TO.N,Net-(R1-Pad1)*%
X52300000Y-25710000D03*
%TO.P,R1,2*%
%TO.N,GND*%
X52300000Y-24690000D03*
%TD*%
D12*
%TO.P,C14,1*%
%TO.N,NRF_XC2*%
X52400000Y-35360000D03*
%TO.P,C14,2*%
%TO.N,GND*%
X52400000Y-34400000D03*
%TD*%
D27*
%TO.P,Y1,1,1*%
%TO.N,NRF_XC1*%
X56400000Y-34150000D03*
%TO.P,Y1,2,2*%
%TO.N,GND*%
X54200000Y-34150000D03*
%TO.P,Y1,3,3*%
%TO.N,NRF_XC2*%
X54200000Y-35850000D03*
%TO.P,Y1,4,4*%
%TO.N,GND*%
X56400000Y-35850000D03*
%TD*%
D23*
%TO.P,C18,1*%
%TO.N,NRF_VDD_PA*%
X61320000Y-30900000D03*
%TO.P,C18,2*%
%TO.N,GND*%
X62280000Y-30900000D03*
%TD*%
D28*
%TO.P,J3,1,Pin_1*%
%TO.N,+3V3*%
X43200000Y-34200000D03*
D29*
%TO.P,J3,2,Pin_2*%
%TO.N,SWDIO*%
X43200000Y-35470000D03*
%TO.P,J3,3,Pin_3*%
%TO.N,GND*%
X41930000Y-34200000D03*
%TO.P,J3,4,Pin_4*%
%TO.N,SWCLK*%
X41930000Y-35470000D03*
%TO.P,J3,5,Pin_5*%
%TO.N,GND*%
X40660000Y-34200000D03*
%TO.P,J3,6,Pin_6*%
%TO.N,unconnected-(J3-Pad6)*%
X40660000Y-35470000D03*
%TO.P,J3,7,Pin_7*%
%TO.N,unconnected-(J3-Pad7)*%
X39390000Y-34200000D03*
%TO.P,J3,8,Pin_8*%
%TO.N,unconnected-(J3-Pad8)*%
X39390000Y-35470000D03*
%TO.P,J3,9,Pin_9*%
%TO.N,GND*%
X38120000Y-34200000D03*
%TO.P,J3,10,Pin_10*%
%TO.N,NRST*%
X38120000Y-35470000D03*
%TD*%
D30*
%TO.P,L3,1*%
%TO.N,NRF_VDD_PA*%
X60220000Y-30870000D03*
%TO.P,L3,2*%
%TO.N,NRF_ANT1*%
X60220000Y-29900000D03*
%TD*%
D31*
%TO.P,U1,1,GND*%
%TO.N,GND*%
X39950000Y-27537500D03*
%TO.P,U1,2,VO*%
%TO.N,+3V3*%
X41850000Y-27537500D03*
%TO.P,U1,3,VI*%
%TO.N,Net-(C1-Pad1)*%
X40900000Y-25662500D03*
%TD*%
D32*
%TO.P,R2,1*%
%TO.N,Net-(D1-Pad1)*%
X43125000Y-23400000D03*
%TO.P,R2,2*%
%TO.N,GND*%
X41475000Y-23400000D03*
%TD*%
D13*
%TO.P,D2,1,K*%
%TO.N,Net-(D2-Pad1)*%
X47000000Y-23325000D03*
%TO.P,D2,2,A*%
%TO.N,Net-(D2-Pad2)*%
X47000000Y-24900000D03*
%TD*%
D12*
%TO.P,C4,1*%
%TO.N,+3V3*%
X51200000Y-25680000D03*
%TO.P,C4,2*%
%TO.N,GND*%
X51200000Y-24720000D03*
%TD*%
D33*
%TO.P,R3,1*%
%TO.N,Net-(D2-Pad1)*%
X49075000Y-23200000D03*
%TO.P,R3,2*%
%TO.N,GND*%
X50725000Y-23200000D03*
%TD*%
D12*
%TO.P,C7,1*%
%TO.N,+3V3*%
X48400000Y-25700000D03*
%TO.P,C7,2*%
%TO.N,GND*%
X48400000Y-24740000D03*
%TD*%
D34*
%TO.P,U4,1,CE*%
%TO.N,NRF_CE*%
X52862500Y-28100000D03*
%TO.P,U4,2,CSN*%
%TO.N,SPI3_!CS*%
X52862500Y-28600000D03*
%TO.P,U4,3,SCK*%
%TO.N,SPI3_SCK*%
X52862500Y-29100000D03*
%TO.P,U4,4,MOSI*%
%TO.N,SPI3_MOSI*%
X52862500Y-29600000D03*
%TO.P,U4,5,MISO*%
%TO.N,SPI3_MISO*%
X52862500Y-30100000D03*
D35*
%TO.P,U4,6,IRQ*%
%TO.N,NRF_IRQ*%
X53800000Y-31037500D03*
%TO.P,U4,7,VDD*%
%TO.N,+3V3*%
X54300000Y-31037500D03*
%TO.P,U4,8,VSS*%
%TO.N,GND*%
X54800000Y-31037500D03*
%TO.P,U4,9,XC2*%
%TO.N,NRF_XC2*%
X55300000Y-31037500D03*
%TO.P,U4,10,XC1*%
%TO.N,NRF_XC1*%
X55800000Y-31037500D03*
D34*
%TO.P,U4,11,VDD_PA*%
%TO.N,NRF_VDD_PA*%
X56737500Y-30100000D03*
%TO.P,U4,12,ANT1*%
%TO.N,NRF_ANT1*%
X56737500Y-29600000D03*
%TO.P,U4,13,ANT2*%
%TO.N,NRF_ANT2*%
X56737500Y-29100000D03*
%TO.P,U4,14,VSS*%
%TO.N,GND*%
X56737500Y-28600000D03*
%TO.P,U4,15,VDD*%
%TO.N,+3V3*%
X56737500Y-28100000D03*
D35*
%TO.P,U4,16,IREF*%
%TO.N,Net-(R4-Pad1)*%
X55800000Y-27162500D03*
%TO.P,U4,17,VSS*%
%TO.N,GND*%
X55300000Y-27162500D03*
%TO.P,U4,18,VDD*%
%TO.N,+3V3*%
X54800000Y-27162500D03*
%TO.P,U4,19,DVDD*%
%TO.N,Net-(C12-Pad1)*%
X54300000Y-27162500D03*
%TO.P,U4,20,VSS*%
%TO.N,GND*%
X53800000Y-27162500D03*
D36*
%TO.P,U4,21*%
%TO.N,N/C*%
X54800000Y-29100000D03*
%TD*%
D23*
%TO.P,C11,1*%
%TO.N,+3V3*%
X55220000Y-25900000D03*
%TO.P,C11,2*%
%TO.N,GND*%
X56180000Y-25900000D03*
%TD*%
D12*
%TO.P,C10,1*%
%TO.N,+3V3*%
X58300000Y-25980000D03*
%TO.P,C10,2*%
%TO.N,GND*%
X58300000Y-25020000D03*
%TD*%
D37*
%TO.P,L2,1*%
%TO.N,NRF_ANT2*%
X59200000Y-28915000D03*
%TO.P,L2,2*%
%TO.N,NRF_ANT1*%
X59200000Y-29885000D03*
%TD*%
D38*
%TO.P,J2,1,In*%
%TO.N,Net-(C15-Pad2)*%
X67600000Y-29700000D03*
D39*
%TO.P,J2,2,Ext*%
%TO.N,GND*%
X67400000Y-26875000D03*
X67400000Y-32525000D03*
%TD*%
D24*
%TO.P,C6,1*%
%TO.N,+3V3*%
X46380000Y-33100000D03*
%TO.P,C6,2*%
%TO.N,GND*%
X45420000Y-33100000D03*
%TD*%
D23*
%TO.P,C9,1*%
%TO.N,+3V3*%
X52980000Y-32500000D03*
%TO.P,C9,2*%
%TO.N,GND*%
X53940000Y-32500000D03*
%TD*%
D24*
%TO.P,C12,1*%
%TO.N,Net-(C12-Pad1)*%
X54280000Y-25900000D03*
%TO.P,C12,2*%
%TO.N,GND*%
X53320000Y-25900000D03*
%TD*%
D40*
%TO.P,U3,1,VDD*%
%TO.N,+3V3*%
X49800000Y-27012500D03*
%TO.P,U3,2,PC14*%
%TO.N,unconnected-(U3-Pad2)*%
X49300000Y-27012500D03*
%TO.P,U3,3,PC15*%
%TO.N,unconnected-(U3-Pad3)*%
X48800000Y-27012500D03*
%TO.P,U3,4,NRST*%
%TO.N,NRST*%
X48300000Y-27012500D03*
%TO.P,U3,5,VDDA*%
%TO.N,+3V3*%
X47800000Y-27012500D03*
%TO.P,U3,6,PA0*%
%TO.N,unconnected-(U3-Pad6)*%
X47300000Y-27012500D03*
%TO.P,U3,7,PA1*%
%TO.N,unconnected-(U3-Pad7)*%
X46800000Y-27012500D03*
%TO.P,U3,8,PA2*%
%TO.N,Net-(D2-Pad2)*%
X46300000Y-27012500D03*
D41*
%TO.P,U3,9,PA3*%
%TO.N,Net-(D1-Pad2)*%
X45612500Y-27700000D03*
%TO.P,U3,10,PA4*%
%TO.N,unconnected-(U3-Pad10)*%
X45612500Y-28200000D03*
%TO.P,U3,11,PA5*%
%TO.N,unconnected-(U3-Pad11)*%
X45612500Y-28700000D03*
%TO.P,U3,12,PA6*%
%TO.N,unconnected-(U3-Pad12)*%
X45612500Y-29200000D03*
%TO.P,U3,13,PA7*%
%TO.N,unconnected-(U3-Pad13)*%
X45612500Y-29700000D03*
%TO.P,U3,14,PB0*%
%TO.N,unconnected-(U3-Pad14)*%
X45612500Y-30200000D03*
%TO.P,U3,15,PB1*%
%TO.N,unconnected-(U3-Pad15)*%
X45612500Y-30700000D03*
%TO.P,U3,16,VSS*%
%TO.N,GND*%
X45612500Y-31200000D03*
D40*
%TO.P,U3,17,VDD*%
%TO.N,+3V3*%
X46300000Y-31887500D03*
%TO.P,U3,18,PA8*%
%TO.N,unconnected-(U3-Pad18)*%
X46800000Y-31887500D03*
%TO.P,U3,19,PA9*%
%TO.N,unconnected-(U3-Pad19)*%
X47300000Y-31887500D03*
%TO.P,U3,20,PA10*%
%TO.N,unconnected-(U3-Pad20)*%
X47800000Y-31887500D03*
%TO.P,U3,21,PA11*%
%TO.N,USB_D-*%
X48300000Y-31887500D03*
%TO.P,U3,22,PA12*%
%TO.N,USB_D+*%
X48800000Y-31887500D03*
%TO.P,U3,23,PA13*%
%TO.N,SWDIO*%
X49300000Y-31887500D03*
%TO.P,U3,24,PA14*%
%TO.N,SWCLK*%
X49800000Y-31887500D03*
D41*
%TO.P,U3,25,PA15*%
%TO.N,NRF_IRQ*%
X50487500Y-31200000D03*
%TO.P,U3,26,PB3*%
%TO.N,SPI3_SCK*%
X50487500Y-30700000D03*
%TO.P,U3,27,PB4*%
%TO.N,SPI3_MISO*%
X50487500Y-30200000D03*
%TO.P,U3,28,PB5*%
%TO.N,SPI3_MOSI*%
X50487500Y-29700000D03*
%TO.P,U3,29,PB6*%
%TO.N,SPI3_!CS*%
X50487500Y-29200000D03*
%TO.P,U3,30,PB7*%
%TO.N,NRF_CE*%
X50487500Y-28700000D03*
%TO.P,U3,31,PH3*%
%TO.N,Net-(R1-Pad1)*%
X50487500Y-28200000D03*
%TO.P,U3,32,VSS*%
%TO.N,GND*%
X50487500Y-27700000D03*
D42*
%TO.P,U3,33,VSS*%
X48050000Y-29450000D03*
%TD*%
D43*
%TO.P,C2,1*%
%TO.N,+3V3*%
X43600000Y-27475000D03*
%TO.P,C2,2*%
%TO.N,GND*%
X43600000Y-25925000D03*
%TD*%
D44*
%TO.P,FB1,1*%
%TO.N,Net-(F1-Pad2)*%
X37237500Y-23700000D03*
%TO.P,FB1,2*%
%TO.N,Net-(C1-Pad1)*%
X39362500Y-23700000D03*
%TD*%
D26*
%TO.P,R4,1*%
%TO.N,Net-(R4-Pad1)*%
X57200000Y-26010000D03*
%TO.P,R4,2*%
%TO.N,GND*%
X57200000Y-24990000D03*
%TD*%
D45*
%TO.P,R5,1*%
%TO.N,NRF_XC1*%
X56510000Y-32500000D03*
%TO.P,R5,2*%
%TO.N,NRF_XC2*%
X55490000Y-32500000D03*
%TD*%
D46*
%TO.N,+5V*%
X38300000Y-30500000D03*
D47*
%TO.N,+3V3*%
X47500000Y-33100000D03*
%TO.N,GND*%
X69300000Y-34400000D03*
X67387736Y-36199999D03*
X65400000Y-36200000D03*
X63000000Y-36200000D03*
X60200000Y-36200000D03*
X60200000Y-34300000D03*
X60200000Y-32200000D03*
X69200000Y-25000000D03*
X67400000Y-23000000D03*
X65400000Y-23000000D03*
X63000000Y-23000000D03*
X60200000Y-23000000D03*
X60200000Y-25000000D03*
D46*
X58000000Y-28200000D03*
D47*
X52700000Y-33500000D03*
X33700000Y-36300000D03*
X37850000Y-28750000D03*
X51000000Y-27200000D03*
X48000000Y-29400000D03*
X48000000Y-28300000D03*
X55400000Y-29600000D03*
X58200000Y-36200000D03*
X66100000Y-33800000D03*
X38000000Y-32700000D03*
X53320000Y-25120000D03*
X55400000Y-28600000D03*
X64300000Y-27200000D03*
X45612500Y-32087500D03*
X44600000Y-26300000D03*
X60200000Y-27700000D03*
X68400000Y-33800000D03*
X54200000Y-28600000D03*
X37000000Y-32700000D03*
X63200000Y-31900000D03*
X55875000Y-23225000D03*
X40500000Y-30500000D03*
X58300000Y-24200000D03*
X40700000Y-27100000D03*
X66100000Y-25600000D03*
X53000000Y-22800000D03*
X51800000Y-23900000D03*
X57200000Y-24200000D03*
X54200000Y-29600000D03*
X51900000Y-22800000D03*
X48000000Y-30500000D03*
X63200000Y-30900000D03*
X42200000Y-24700000D03*
X67900000Y-25600000D03*
X39400000Y-32700000D03*
X67000000Y-25600000D03*
X36800000Y-31800000D03*
X54660000Y-32500000D03*
X67400000Y-33800000D03*
X40800000Y-28100000D03*
X52900000Y-24100000D03*
%TO.N,+3V3*%
X47300000Y-25900000D03*
X54325000Y-23125000D03*
X44000000Y-28500000D03*
X52000000Y-32500000D03*
X58400000Y-26900000D03*
X51400000Y-26400000D03*
X43000000Y-28500000D03*
%TO.N,NRST*%
X49300000Y-25500000D03*
%TO.N,+5V*%
X36800000Y-28400000D03*
%TO.N,SPI3_SCK*%
X51800000Y-29400000D03*
X51800000Y-31200000D03*
%TD*%
D48*
%TO.N,USB_D-*%
X41930424Y-29942924D02*
X41537500Y-29550000D01*
X42218616Y-29942924D02*
X41930424Y-29942924D01*
X43550163Y-30267843D02*
X42543535Y-30267843D01*
X42543535Y-30267843D02*
X42218616Y-29942924D01*
X44555156Y-31272836D02*
X43550163Y-30267843D01*
X44555156Y-33939836D02*
X44555156Y-31272836D01*
X45217267Y-34601947D02*
X44555156Y-33939836D01*
X46496733Y-34601947D02*
X45217267Y-34601947D01*
X46546733Y-34601947D02*
X46496733Y-34601947D01*
X46846733Y-34259773D02*
X46846733Y-34301947D01*
X47446733Y-34301947D02*
X47446733Y-34259773D01*
X48300000Y-31887500D02*
X48317843Y-31905343D01*
X48317843Y-31905343D02*
X48317843Y-34030837D01*
X46846733Y-34259773D02*
G75*
G02*
X47146733Y-33959773I300000J0D01*
G01*
X47146733Y-33959773D02*
G75*
G02*
X47446733Y-34259773I0J-300000D01*
G01*
X47446733Y-34301947D02*
G75*
G03*
X47746733Y-34601947I300000J0D01*
G01*
X46546733Y-34601947D02*
G75*
G03*
X46846733Y-34301947I0J300000D01*
G01*
X48317843Y-34030837D02*
X47746733Y-34601947D01*
%TO.N,USB_D+*%
X41930424Y-31057076D02*
X41537500Y-31450000D01*
X42218616Y-31057076D02*
X41930424Y-31057076D01*
X42543535Y-30732157D02*
X42218616Y-31057076D01*
X43357837Y-30732157D02*
X42543535Y-30732157D01*
X44090844Y-31465164D02*
X43357837Y-30732157D01*
X44090844Y-34132164D02*
X44090844Y-31465164D01*
X45024939Y-35066259D02*
X44090844Y-34132164D01*
X47939061Y-35066259D02*
X45024939Y-35066259D01*
X48782157Y-34223163D02*
X47939061Y-35066259D01*
X48782157Y-31905343D02*
X48782157Y-34223163D01*
X48800000Y-31887500D02*
X48782157Y-31905343D01*
%TO.N,USB_CONN_D-*%
X35725000Y-29350000D02*
X35260000Y-29350000D01*
X36502164Y-29442844D02*
X35817844Y-29442844D01*
%TO.N,USB_CONN_D+*%
X35817844Y-29907156D02*
X35725000Y-30000000D01*
X36309836Y-29907156D02*
X35817844Y-29907156D01*
%TO.N,USB_CONN_D-*%
X37327163Y-30267843D02*
X36502164Y-29442844D01*
%TO.N,USB_CONN_D+*%
X37134837Y-30732157D02*
X36309836Y-29907156D01*
X35725000Y-30000000D02*
X35260000Y-30000000D01*
%TO.N,USB_CONN_D-*%
X35817844Y-29442844D02*
X35725000Y-29350000D01*
X37642933Y-30267843D02*
X37327163Y-30267843D01*
%TO.N,USB_CONN_D+*%
X37642933Y-30732157D02*
X37134837Y-30732157D01*
%TO.N,USB_CONN_D-*%
X37642933Y-30227833D02*
X37642933Y-30267843D01*
X38027833Y-29842933D02*
X37642933Y-30227833D01*
X38572167Y-29842933D02*
X38027833Y-29842933D01*
X38672158Y-29942924D02*
X38572167Y-29842933D01*
X38869576Y-29942924D02*
X38672158Y-29942924D01*
X39262500Y-29550000D02*
X38869576Y-29942924D01*
%TO.N,USB_CONN_D+*%
X37642933Y-30772167D02*
X37642933Y-30732157D01*
X38572167Y-31157067D02*
X38027833Y-31157067D01*
X38869576Y-31057076D02*
X38672158Y-31057076D01*
X38672158Y-31057076D02*
X38572167Y-31157067D01*
X38027833Y-31157067D02*
X37642933Y-30772167D01*
X39262500Y-31450000D02*
X38869576Y-31057076D01*
D49*
%TO.N,+5V*%
X39262500Y-30500000D02*
X38300000Y-30500000D01*
%TO.N,+3V3*%
X47500000Y-33100000D02*
X46380000Y-33100000D01*
D50*
%TO.N,GND*%
X67400000Y-23200000D02*
X67400000Y-23000000D01*
X69200000Y-25000000D02*
X67400000Y-23200000D01*
X67500001Y-36199999D02*
X69300000Y-34400000D01*
X67387736Y-36199999D02*
X67500001Y-36199999D01*
X65400000Y-36200000D02*
X67387736Y-36199999D01*
X63000000Y-36200000D02*
X65400000Y-36200000D01*
X60200000Y-36200000D02*
X63000000Y-36200000D01*
X60200000Y-34300000D02*
X60200000Y-36200000D01*
X60200000Y-32200000D02*
X60200000Y-34300000D01*
X65400000Y-23000000D02*
X67400000Y-23000000D01*
X63000000Y-23000000D02*
X65400000Y-23000000D01*
X60200000Y-23000000D02*
X63000000Y-23000000D01*
X60200000Y-25000000D02*
X60200000Y-23000000D01*
X60200000Y-27700000D02*
X60200000Y-25000000D01*
%TO.N,Net-(C1-Pad1)*%
X40637500Y-25925000D02*
X40900000Y-25662500D01*
X38000000Y-25925000D02*
X40637500Y-25925000D01*
X40900000Y-25662500D02*
X40900000Y-25237500D01*
X40900000Y-25237500D02*
X39362500Y-23700000D01*
D49*
%TO.N,GND*%
X51200000Y-24720000D02*
X51200000Y-24500000D01*
X35000000Y-36300000D02*
X33700000Y-36300000D01*
D51*
X52400000Y-34400000D02*
X53950000Y-34400000D01*
D49*
X48400000Y-24740000D02*
X49185000Y-24740000D01*
D50*
X39950000Y-27537500D02*
X40237500Y-27537500D01*
D49*
X38000000Y-27475000D02*
X38000000Y-28600000D01*
D50*
X40262500Y-27537500D02*
X40700000Y-27100000D01*
D51*
X52400000Y-33800000D02*
X52700000Y-33500000D01*
D49*
X35260000Y-31300000D02*
X36300000Y-31300000D01*
X50080000Y-24740000D02*
X50100000Y-24720000D01*
D52*
X53800000Y-27162500D02*
X53562500Y-27162500D01*
D51*
X66100000Y-26000000D02*
X66975000Y-26875000D01*
D49*
X51200000Y-24500000D02*
X51800000Y-23900000D01*
X36900000Y-31900000D02*
X36900000Y-32600000D01*
D50*
X43600000Y-25925000D02*
X44225000Y-25925000D01*
D52*
X56170554Y-25900000D02*
X56180000Y-25900000D01*
X56737500Y-28600000D02*
X57600000Y-28600000D01*
D51*
X66975000Y-26875000D02*
X67400000Y-26875000D01*
X67600000Y-32725000D02*
X67400000Y-32525000D01*
D50*
X40237500Y-27537500D02*
X40800000Y-28100000D01*
D52*
X55300000Y-26770554D02*
X56170554Y-25900000D01*
D49*
X36800000Y-31800000D02*
X36900000Y-31900000D01*
X54660000Y-32500000D02*
X53940000Y-32500000D01*
D50*
X38062500Y-27537500D02*
X38000000Y-27475000D01*
D49*
X50725000Y-23200000D02*
X51100000Y-23200000D01*
D51*
X67400000Y-32525000D02*
X67400000Y-32800000D01*
D49*
X41475000Y-23400000D02*
X41475000Y-23975000D01*
D50*
X39950000Y-27537500D02*
X38062500Y-27537500D01*
D52*
X53320000Y-26920000D02*
X53320000Y-25900000D01*
X45612500Y-31200000D02*
X45612500Y-32087500D01*
D51*
X62280000Y-31900000D02*
X63200000Y-31900000D01*
D49*
X50725000Y-23200000D02*
X51500000Y-23200000D01*
D52*
X57950000Y-28250000D02*
X58000000Y-28200000D01*
D51*
X68400000Y-33300000D02*
X67625000Y-32525000D01*
X67900000Y-25600000D02*
X67900000Y-26375000D01*
X67400000Y-33800000D02*
X67400000Y-32525000D01*
D49*
X51100000Y-23200000D02*
X51800000Y-23900000D01*
D51*
X67000000Y-26475000D02*
X67400000Y-26875000D01*
D49*
X40500000Y-30500000D02*
X41537500Y-30500000D01*
X55875000Y-24300000D02*
X55875000Y-25595000D01*
X38000000Y-28600000D02*
X37850000Y-28750000D01*
X58300000Y-25020000D02*
X58300000Y-24200000D01*
D52*
X45612500Y-32907500D02*
X45420000Y-33100000D01*
D51*
X53950000Y-34400000D02*
X54200000Y-34150000D01*
D52*
X51000000Y-27500000D02*
X51000000Y-27200000D01*
D51*
X67625000Y-32525000D02*
X67400000Y-32525000D01*
D52*
X50800000Y-27700000D02*
X51000000Y-27500000D01*
D49*
X36900000Y-32600000D02*
X37000000Y-32700000D01*
D51*
X52400000Y-34400000D02*
X52400000Y-33800000D01*
D52*
X55300000Y-27162500D02*
X55300000Y-26770554D01*
D49*
X53320000Y-25900000D02*
X53320000Y-25120000D01*
X37000000Y-32700000D02*
X38000000Y-32700000D01*
X50100000Y-24720000D02*
X51200000Y-24720000D01*
X48400000Y-24740000D02*
X50080000Y-24740000D01*
X49185000Y-24740000D02*
X50725000Y-23200000D01*
D52*
X45612500Y-32087500D02*
X45612500Y-32907500D01*
D49*
X55875000Y-25595000D02*
X56180000Y-25900000D01*
X36300000Y-31300000D02*
X36800000Y-31800000D01*
D51*
X67000000Y-25600000D02*
X67000000Y-26475000D01*
D52*
X57600000Y-28600000D02*
X57950000Y-28250000D01*
D50*
X39950000Y-27537500D02*
X40262500Y-27537500D01*
D49*
X57200000Y-24990000D02*
X57200000Y-24200000D01*
D51*
X56400000Y-35850000D02*
X57650000Y-35850000D01*
X67400000Y-32800000D02*
X67600000Y-33000000D01*
X68125000Y-32525000D02*
X67400000Y-32525000D01*
X57650000Y-35850000D02*
X58200000Y-35300000D01*
D49*
X52300000Y-24690000D02*
X52310000Y-24690000D01*
X37850000Y-28750000D02*
X37800000Y-28800000D01*
X55875000Y-24300000D02*
X55875000Y-23225000D01*
D51*
X67900000Y-26375000D02*
X67400000Y-26875000D01*
X62280000Y-30900000D02*
X63200000Y-30900000D01*
D50*
X44225000Y-25925000D02*
X44600000Y-26300000D01*
D51*
X66100000Y-32700000D02*
X66100000Y-33800000D01*
X66275000Y-32525000D02*
X66100000Y-32700000D01*
D49*
X38000000Y-32700000D02*
X39400000Y-32700000D01*
D52*
X53562500Y-27162500D02*
X53320000Y-26920000D01*
D51*
X66100000Y-25600000D02*
X66100000Y-26000000D01*
D49*
X51500000Y-23200000D02*
X51900000Y-22800000D01*
X52310000Y-24690000D02*
X52900000Y-24100000D01*
D52*
X54800000Y-32360000D02*
X54660000Y-32500000D01*
D51*
X64300000Y-28020000D02*
X64300000Y-27200000D01*
X68400000Y-33800000D02*
X68400000Y-33300000D01*
D52*
X50487500Y-27700000D02*
X50800000Y-27700000D01*
X54800000Y-31037500D02*
X54800000Y-32360000D01*
D51*
X58200000Y-35300000D02*
X58200000Y-36200000D01*
D49*
X41475000Y-23975000D02*
X42200000Y-24700000D01*
D51*
X67400000Y-32525000D02*
X66275000Y-32525000D01*
D49*
%TO.N,+3V3*%
X54325000Y-24325000D02*
X55220000Y-25220000D01*
X58400000Y-26080000D02*
X58300000Y-25980000D01*
X55220000Y-25220000D02*
X55220000Y-25900000D01*
D52*
X49800000Y-26300000D02*
X50580000Y-26300000D01*
X46300000Y-31887500D02*
X46300000Y-33020000D01*
X47800000Y-26300000D02*
X48400000Y-25700000D01*
D49*
X52000000Y-32500000D02*
X52980000Y-32500000D01*
D52*
X51200000Y-26200000D02*
X51400000Y-26400000D01*
D53*
X53900000Y-31900000D02*
X53100000Y-31900000D01*
D50*
X43062500Y-27537500D02*
X43537500Y-27537500D01*
D52*
X49800000Y-25980000D02*
X50100000Y-25680000D01*
D53*
X54300000Y-31037500D02*
X54300000Y-31500000D01*
D49*
X58400000Y-26900000D02*
X58400000Y-26080000D01*
X54325000Y-24300000D02*
X54325000Y-24325000D01*
D50*
X44000000Y-27875000D02*
X43600000Y-27475000D01*
D53*
X53100000Y-31900000D02*
X52980000Y-32020000D01*
D52*
X46300000Y-33020000D02*
X46380000Y-33100000D01*
D49*
X51200000Y-25680000D02*
X50100000Y-25680000D01*
X48200000Y-25900000D02*
X48400000Y-25700000D01*
D52*
X58290000Y-25990000D02*
X58300000Y-25980000D01*
D49*
X47300000Y-25900000D02*
X48200000Y-25900000D01*
D53*
X54300000Y-31500000D02*
X53900000Y-31900000D01*
X52980000Y-32020000D02*
X52980000Y-32500000D01*
D52*
X47800000Y-27012500D02*
X47800000Y-26300000D01*
D50*
X43000000Y-28500000D02*
X43000000Y-28075000D01*
D52*
X49800000Y-27012500D02*
X49800000Y-26300000D01*
D50*
X43000000Y-28075000D02*
X43600000Y-27475000D01*
X41850000Y-27537500D02*
X43062500Y-27537500D01*
X44000000Y-28500000D02*
X44000000Y-27875000D01*
D52*
X54800000Y-26320000D02*
X55220000Y-25900000D01*
D49*
X54325000Y-24300000D02*
X54325000Y-23125000D01*
D52*
X56737500Y-27542500D02*
X58290000Y-25990000D01*
D50*
X43537500Y-27537500D02*
X43600000Y-27475000D01*
D52*
X51200000Y-25680000D02*
X51200000Y-26200000D01*
X50580000Y-26300000D02*
X51200000Y-25680000D01*
X56737500Y-28100000D02*
X56737500Y-27542500D01*
X49800000Y-26300000D02*
X49800000Y-25980000D01*
X54800000Y-27162500D02*
X54800000Y-26320000D01*
%TO.N,NRST*%
X48300000Y-26556520D02*
X48600000Y-26256520D01*
X48600000Y-26256520D02*
X48843480Y-26256520D01*
D49*
X35960000Y-36300000D02*
X37290000Y-36300000D01*
X37290000Y-36300000D02*
X38120000Y-35470000D01*
D52*
X48843480Y-26256520D02*
X49300000Y-25800000D01*
X48300000Y-27012500D02*
X48300000Y-26556520D01*
X49300000Y-25800000D02*
X49300000Y-25500000D01*
%TO.N,Net-(C12-Pad1)*%
X54300000Y-27162500D02*
X54300000Y-25920000D01*
X54300000Y-25920000D02*
X54280000Y-25900000D01*
D51*
%TO.N,NRF_XC1*%
X56510000Y-32500000D02*
X56510000Y-34040000D01*
X56400000Y-34150000D02*
X58010000Y-34150000D01*
X56510000Y-34040000D02*
X56400000Y-34150000D01*
X55800000Y-31037500D02*
X55800000Y-31790000D01*
X58010000Y-34150000D02*
X58200000Y-34340000D01*
X55800000Y-31790000D02*
X56510000Y-32500000D01*
%TO.N,NRF_XC2*%
X55300000Y-31037500D02*
X55300000Y-32310000D01*
X55300000Y-32690000D02*
X55490000Y-32500000D01*
X54200000Y-35850000D02*
X54750000Y-35850000D01*
X55300000Y-35300000D02*
X55300000Y-32690000D01*
X55300000Y-32310000D02*
X55490000Y-32500000D01*
X54750000Y-35850000D02*
X55300000Y-35300000D01*
X54200000Y-35850000D02*
X52890000Y-35850000D01*
X52890000Y-35850000D02*
X52400000Y-35360000D01*
%TO.N,Net-(C15-Pad1)*%
X61220000Y-28900000D02*
X62320000Y-28900000D01*
%TO.N,Net-(C15-Pad2)*%
X63280000Y-28900000D02*
X64220000Y-28900000D01*
X67600000Y-29700000D02*
X65020000Y-29700000D01*
X65020000Y-29700000D02*
X64300000Y-28980000D01*
X64220000Y-28900000D02*
X64300000Y-28980000D01*
%TO.N,NRF_VDD_PA*%
X60220000Y-30870000D02*
X61290000Y-30870000D01*
X61320000Y-31900000D02*
X61320000Y-30900000D01*
X57507500Y-30870000D02*
X56737500Y-30100000D01*
X60220000Y-30870000D02*
X57507500Y-30870000D01*
X61290000Y-30870000D02*
X61320000Y-30900000D01*
D49*
%TO.N,Net-(D1-Pad1)*%
X45225000Y-23400000D02*
X45300000Y-23325000D01*
X43125000Y-23400000D02*
X45225000Y-23400000D01*
D52*
%TO.N,Net-(D1-Pad2)*%
X45612500Y-25212500D02*
X45300000Y-24900000D01*
X45612500Y-27700000D02*
X45612500Y-25212500D01*
D49*
%TO.N,Net-(D2-Pad1)*%
X48950000Y-23325000D02*
X49075000Y-23200000D01*
X47000000Y-23325000D02*
X48950000Y-23325000D01*
D52*
%TO.N,Net-(D2-Pad2)*%
X46300000Y-25600000D02*
X47000000Y-24900000D01*
X46300000Y-27012500D02*
X46300000Y-25600000D01*
D49*
%TO.N,+5V*%
X36500000Y-28700000D02*
X36800000Y-28400000D01*
X36800000Y-26600000D02*
X35900000Y-25700000D01*
X35260000Y-28700000D02*
X36500000Y-28700000D01*
X36800000Y-28400000D02*
X36800000Y-26600000D01*
X35900000Y-25700000D02*
X34400000Y-25700000D01*
X34400000Y-25700000D02*
X32700000Y-24000000D01*
D50*
%TO.N,Net-(F1-Pad2)*%
X35800000Y-23700000D02*
X35500000Y-24000000D01*
X37237500Y-23700000D02*
X35800000Y-23700000D01*
D52*
%TO.N,unconnected-(J1-Pad6)*%
X35175000Y-32487500D02*
X33487500Y-32487500D01*
X32600000Y-33375000D02*
X32600000Y-31550000D01*
X32600000Y-31550000D02*
X32600000Y-28850000D01*
X35175000Y-27512500D02*
X33487500Y-27512500D01*
X33487500Y-32487500D02*
X32600000Y-33375000D01*
X32600000Y-28850000D02*
X32600000Y-26625000D01*
X33487500Y-27512500D02*
X32600000Y-26625000D01*
D51*
%TO.N,SWDIO*%
X48230000Y-35470000D02*
X49300000Y-34400000D01*
X43200000Y-35470000D02*
X48230000Y-35470000D01*
X49300000Y-34400000D02*
X49300000Y-31887500D01*
%TO.N,SWCLK*%
X49800000Y-31887500D02*
X49800000Y-34900000D01*
X42960000Y-36500000D02*
X41930000Y-35470000D01*
X48200000Y-36500000D02*
X42960000Y-36500000D01*
X49800000Y-34900000D02*
X48200000Y-36500000D01*
%TO.N,NRF_ANT2*%
X60235000Y-28915000D02*
X60250000Y-28900000D01*
X59015000Y-29100000D02*
X59200000Y-28915000D01*
X59200000Y-28915000D02*
X60235000Y-28915000D01*
X56737500Y-29100000D02*
X59015000Y-29100000D01*
%TO.N,NRF_ANT1*%
X59215000Y-29900000D02*
X59200000Y-29885000D01*
X56737500Y-29600000D02*
X58915000Y-29600000D01*
X60220000Y-29900000D02*
X59215000Y-29900000D01*
X58915000Y-29600000D02*
X59200000Y-29885000D01*
D52*
%TO.N,Net-(R1-Pad1)*%
X52026511Y-25983489D02*
X52300000Y-25710000D01*
X50487500Y-28200000D02*
X51049018Y-28200000D01*
X51049018Y-28200000D02*
X52026511Y-27222507D01*
X52026511Y-27222507D02*
X52026511Y-25983489D01*
%TO.N,Net-(R4-Pad1)*%
X56047500Y-27162500D02*
X57200000Y-26010000D01*
X55800000Y-27162500D02*
X56047500Y-27162500D01*
D48*
%TO.N,USB_D+*%
X48805556Y-31893056D02*
X48800000Y-31887500D01*
%TO.N,USB_D-*%
X48300000Y-31887500D02*
X48294444Y-31893056D01*
D53*
%TO.N,NRF_IRQ*%
X52300000Y-31900000D02*
X53162500Y-31037500D01*
X51200000Y-31900000D02*
X52300000Y-31900000D01*
X50487500Y-31200000D02*
X50500000Y-31200000D01*
X53162500Y-31037500D02*
X53800000Y-31037500D01*
X50500000Y-31200000D02*
X51200000Y-31900000D01*
%TO.N,SPI3_SCK*%
X52100000Y-29100000D02*
X51800000Y-29400000D01*
X51600000Y-31200000D02*
X51800000Y-31200000D01*
X50487500Y-30700000D02*
X51100000Y-30700000D01*
X52862500Y-29100000D02*
X52100000Y-29100000D01*
X51100000Y-30700000D02*
X51600000Y-31200000D01*
%TO.N,SPI3_MISO*%
X52400000Y-30500000D02*
X51500000Y-30500000D01*
X51200000Y-30200000D02*
X50487500Y-30200000D01*
X52800000Y-30100000D02*
X52400000Y-30500000D01*
X52862500Y-30100000D02*
X52800000Y-30100000D01*
X51500000Y-30500000D02*
X51200000Y-30200000D01*
%TO.N,SPI3_MOSI*%
X52000000Y-30100000D02*
X51649334Y-30100000D01*
X52862500Y-29600000D02*
X52500000Y-29600000D01*
X51249334Y-29700000D02*
X50487500Y-29700000D01*
X51649334Y-30100000D02*
X51249334Y-29700000D01*
X52500000Y-29600000D02*
X52000000Y-30100000D01*
%TO.N,SPI3_!CS*%
X50487500Y-29200000D02*
X51149334Y-29200000D01*
X51149334Y-29200000D02*
X51749334Y-28600000D01*
X51749334Y-28600000D02*
X52862500Y-28600000D01*
%TO.N,NRF_CE*%
X50495927Y-28708427D02*
X50487500Y-28700000D01*
X51593374Y-28223480D02*
X51108427Y-28708427D01*
X52739020Y-28223480D02*
X51593374Y-28223480D01*
X51108427Y-28708427D02*
X50495927Y-28708427D01*
X52862500Y-28100000D02*
X52739020Y-28223480D01*
%TD*%
%TA.AperFunction,Conductor*%
%TO.N,GND*%
G36*
X34087622Y-27937002D02*
G01*
X34134115Y-27990658D01*
X34145501Y-28043000D01*
X34145501Y-28250066D01*
X34151895Y-28282212D01*
X34156175Y-28303731D01*
X34160266Y-28324301D01*
X34167161Y-28334621D01*
X34167162Y-28334622D01*
X34191215Y-28370619D01*
X34216516Y-28408484D01*
X34226832Y-28415377D01*
X34226833Y-28415378D01*
X34259503Y-28437208D01*
X34305030Y-28491685D01*
X34315500Y-28541972D01*
X34315501Y-28748503D01*
X34315501Y-28950066D01*
X34321891Y-28982194D01*
X34325516Y-29000419D01*
X34325516Y-29049579D01*
X34315500Y-29099933D01*
X34315501Y-29600066D01*
X34323083Y-29638188D01*
X34325516Y-29650419D01*
X34325516Y-29699579D01*
X34315500Y-29749933D01*
X34315501Y-30250066D01*
X34317976Y-30262510D01*
X34325516Y-30300419D01*
X34325516Y-30349579D01*
X34315500Y-30399933D01*
X34315500Y-30567825D01*
X34295498Y-30635946D01*
X34265065Y-30668652D01*
X34214272Y-30706719D01*
X34201715Y-30719276D01*
X34125214Y-30821351D01*
X34116676Y-30836946D01*
X34071522Y-30957394D01*
X34067895Y-30972649D01*
X34062369Y-31023514D01*
X34062000Y-31030328D01*
X34062000Y-31056885D01*
X34066475Y-31072124D01*
X34067865Y-31073329D01*
X34075548Y-31075000D01*
X34373011Y-31075000D01*
X34443014Y-31096236D01*
X34460379Y-31107839D01*
X34460382Y-31107840D01*
X34470699Y-31114734D01*
X34482868Y-31117155D01*
X34482869Y-31117155D01*
X34537814Y-31128084D01*
X34544933Y-31129500D01*
X35259884Y-31129500D01*
X35975066Y-31129499D01*
X36049301Y-31114734D01*
X36059621Y-31107839D01*
X36059622Y-31107838D01*
X36076986Y-31096236D01*
X36146989Y-31075000D01*
X36439884Y-31075000D01*
X36455123Y-31070525D01*
X36456328Y-31069135D01*
X36457999Y-31061452D01*
X36457999Y-31030331D01*
X36457629Y-31023510D01*
X36452105Y-30972648D01*
X36448479Y-30957397D01*
X36432500Y-30914773D01*
X36427317Y-30843966D01*
X36461237Y-30781597D01*
X36523493Y-30747468D01*
X36594317Y-30752414D01*
X36639577Y-30781448D01*
X36824011Y-30965882D01*
X36839745Y-30985363D01*
X36840450Y-30986138D01*
X36846100Y-30994888D01*
X36872949Y-31016054D01*
X36877486Y-31020086D01*
X36877543Y-31020018D01*
X36881500Y-31023371D01*
X36885180Y-31027051D01*
X36901170Y-31038478D01*
X36905878Y-31042013D01*
X36946770Y-31074250D01*
X36955535Y-31077328D01*
X36963094Y-31082730D01*
X36973075Y-31085715D01*
X37012959Y-31097643D01*
X37018603Y-31099477D01*
X37060237Y-31114097D01*
X37060240Y-31114098D01*
X37067719Y-31116724D01*
X37073365Y-31117213D01*
X37076079Y-31117213D01*
X37078792Y-31117330D01*
X37078807Y-31117335D01*
X37078799Y-31117525D01*
X37079615Y-31117576D01*
X37085910Y-31119459D01*
X37140603Y-31117310D01*
X37145549Y-31117213D01*
X37391238Y-31117213D01*
X37459359Y-31137215D01*
X37480333Y-31154118D01*
X37717007Y-31390792D01*
X37732741Y-31410273D01*
X37733446Y-31411048D01*
X37739096Y-31419798D01*
X37765945Y-31440964D01*
X37770483Y-31444997D01*
X37770540Y-31444929D01*
X37774499Y-31448284D01*
X37778176Y-31451961D01*
X37782401Y-31454981D01*
X37782410Y-31454988D01*
X37794134Y-31463366D01*
X37798872Y-31466923D01*
X37839766Y-31499160D01*
X37848533Y-31502239D01*
X37856090Y-31507639D01*
X37866068Y-31510623D01*
X37866072Y-31510625D01*
X37905948Y-31522550D01*
X37911596Y-31524385D01*
X37953232Y-31539007D01*
X37953238Y-31539008D01*
X37960715Y-31541634D01*
X37966361Y-31542123D01*
X37969075Y-31542123D01*
X37971788Y-31542240D01*
X37971803Y-31542245D01*
X37971795Y-31542435D01*
X37972611Y-31542486D01*
X37978906Y-31544369D01*
X38033599Y-31542220D01*
X38038545Y-31542123D01*
X38223677Y-31542123D01*
X38291798Y-31562125D01*
X38338291Y-31615781D01*
X38348126Y-31648412D01*
X38360502Y-31726555D01*
X38418674Y-31840723D01*
X38509277Y-31931326D01*
X38623445Y-31989498D01*
X38718166Y-32004500D01*
X39806834Y-32004500D01*
X39901555Y-31989498D01*
X40015723Y-31931326D01*
X40106326Y-31840723D01*
X40164498Y-31726555D01*
X40179500Y-31631834D01*
X40179500Y-31268166D01*
X40164498Y-31173445D01*
X40117455Y-31081119D01*
X40110827Y-31068110D01*
X40110826Y-31068109D01*
X40106326Y-31059277D01*
X40099315Y-31052266D01*
X40096987Y-31049062D01*
X40073128Y-30982195D01*
X40089207Y-30913043D01*
X40096987Y-30900938D01*
X40099315Y-30897734D01*
X40106326Y-30890723D01*
X40112045Y-30879500D01*
X40155075Y-30795049D01*
X40203824Y-30743434D01*
X40272739Y-30726368D01*
X40339940Y-30749269D01*
X40384092Y-30804867D01*
X40388339Y-30817098D01*
X40414107Y-30905790D01*
X40420352Y-30920221D01*
X40496911Y-31049678D01*
X40506551Y-31062104D01*
X40587697Y-31143250D01*
X40621723Y-31205562D01*
X40623051Y-31252051D01*
X40621275Y-31263264D01*
X40621274Y-31263281D01*
X40620500Y-31268166D01*
X40620500Y-31631834D01*
X40635502Y-31726555D01*
X40693674Y-31840723D01*
X40784277Y-31931326D01*
X40898445Y-31989498D01*
X40993166Y-32004500D01*
X42081834Y-32004500D01*
X42176555Y-31989498D01*
X42290723Y-31931326D01*
X42381326Y-31840723D01*
X42439498Y-31726555D01*
X42454500Y-31631834D01*
X42454500Y-31418512D01*
X42474502Y-31350391D01*
X42487977Y-31332981D01*
X42495060Y-31325319D01*
X42498488Y-31321755D01*
X42666125Y-31154118D01*
X42728437Y-31120092D01*
X42755220Y-31117213D01*
X43146151Y-31117213D01*
X43214272Y-31137215D01*
X43235247Y-31154118D01*
X43668884Y-31587756D01*
X43702909Y-31650068D01*
X43705788Y-31676851D01*
X43705788Y-33319500D01*
X43685786Y-33387621D01*
X43632130Y-33434114D01*
X43579788Y-33445500D01*
X42723220Y-33445501D01*
X42674934Y-33445501D01*
X42668863Y-33446708D01*
X42662703Y-33447315D01*
X42662475Y-33445003D01*
X42602080Y-33439603D01*
X42567889Y-33419433D01*
X42501145Y-33364217D01*
X42490973Y-33357356D01*
X42327924Y-33269196D01*
X42316619Y-33264444D01*
X42201308Y-33228750D01*
X42187205Y-33228544D01*
X42184000Y-33235299D01*
X42184000Y-34328000D01*
X42163998Y-34396121D01*
X42110342Y-34442614D01*
X42058000Y-34454000D01*
X40532000Y-34454000D01*
X40463879Y-34433998D01*
X40417386Y-34380342D01*
X40406000Y-34328000D01*
X40406000Y-33927885D01*
X40914000Y-33927885D01*
X40918475Y-33943124D01*
X40919865Y-33944329D01*
X40927548Y-33946000D01*
X41657885Y-33946000D01*
X41673124Y-33941525D01*
X41674329Y-33940135D01*
X41676000Y-33932452D01*
X41676000Y-33242076D01*
X41672027Y-33228545D01*
X41664232Y-33227425D01*
X41556479Y-33259138D01*
X41545111Y-33263731D01*
X41380846Y-33349607D01*
X41365426Y-33359697D01*
X41364095Y-33357663D01*
X41308357Y-33380653D01*
X41238508Y-33367943D01*
X41224617Y-33359814D01*
X41220971Y-33357355D01*
X41057924Y-33269196D01*
X41046619Y-33264444D01*
X40931308Y-33228750D01*
X40917205Y-33228544D01*
X40914000Y-33235299D01*
X40914000Y-33927885D01*
X40406000Y-33927885D01*
X40406000Y-33242076D01*
X40402027Y-33228545D01*
X40394232Y-33227425D01*
X40286479Y-33259138D01*
X40275111Y-33263731D01*
X40110846Y-33349607D01*
X40100585Y-33356321D01*
X39956127Y-33472468D01*
X39947368Y-33481046D01*
X39920256Y-33513356D01*
X39861146Y-33552683D01*
X39790158Y-33553809D01*
X39756220Y-33538750D01*
X39744219Y-33531134D01*
X39722844Y-33517569D01*
X39686903Y-33504771D01*
X39570016Y-33463149D01*
X39570011Y-33463148D01*
X39563381Y-33460787D01*
X39556395Y-33459954D01*
X39556391Y-33459953D01*
X39431010Y-33445003D01*
X39395301Y-33440745D01*
X39388298Y-33441481D01*
X39388297Y-33441481D01*
X39233965Y-33457701D01*
X39233961Y-33457702D01*
X39226957Y-33458438D01*
X39220286Y-33460709D01*
X39073387Y-33510717D01*
X39073384Y-33510718D01*
X39066717Y-33512988D01*
X39060714Y-33516681D01*
X39060712Y-33516682D01*
X39023334Y-33539676D01*
X38954833Y-33558334D01*
X38887119Y-33536994D01*
X38859670Y-33511994D01*
X38842603Y-33491067D01*
X38833959Y-33482363D01*
X38691144Y-33364216D01*
X38680973Y-33357356D01*
X38517924Y-33269196D01*
X38506619Y-33264444D01*
X38391308Y-33228750D01*
X38377205Y-33228544D01*
X38374000Y-33235299D01*
X38374000Y-34328000D01*
X38353998Y-34396121D01*
X38300342Y-34442614D01*
X38248000Y-34454000D01*
X37162282Y-34454000D01*
X37148751Y-34457973D01*
X37147601Y-34465975D01*
X37176552Y-34566941D01*
X37181067Y-34578345D01*
X37265794Y-34743207D01*
X37272435Y-34753512D01*
X37387568Y-34898772D01*
X37396091Y-34907598D01*
X37433947Y-34939816D01*
X37472860Y-34999199D01*
X37473491Y-35070193D01*
X37458195Y-35104026D01*
X37439909Y-35132400D01*
X37437498Y-35139025D01*
X37384425Y-35284840D01*
X37384424Y-35284845D01*
X37382015Y-35291463D01*
X37381132Y-35298455D01*
X37361683Y-35452405D01*
X37361683Y-35452410D01*
X37360800Y-35459399D01*
X37361357Y-35465082D01*
X37340559Y-35532412D01*
X37324620Y-35551909D01*
X37117934Y-35758595D01*
X37055622Y-35792621D01*
X37028839Y-35795500D01*
X36342717Y-35795500D01*
X36285514Y-35781767D01*
X36240036Y-35758595D01*
X36223427Y-35750132D01*
X36213637Y-35748581D01*
X36213636Y-35748581D01*
X36187899Y-35744505D01*
X36131045Y-35735500D01*
X35960035Y-35735500D01*
X35788956Y-35735501D01*
X35742688Y-35742829D01*
X35672280Y-35733729D01*
X35633885Y-35707475D01*
X35545926Y-35619516D01*
X35533499Y-35609876D01*
X35406220Y-35534604D01*
X35391784Y-35528357D01*
X35271395Y-35493381D01*
X35257295Y-35493421D01*
X35254000Y-35500691D01*
X35254000Y-36428000D01*
X35233998Y-36496121D01*
X35180342Y-36542614D01*
X35128000Y-36554000D01*
X34231576Y-36554000D01*
X34216781Y-36558344D01*
X34214937Y-36568775D01*
X34216688Y-36578359D01*
X34258357Y-36721784D01*
X34264605Y-36736222D01*
X34276219Y-36755860D01*
X34293679Y-36824676D01*
X34271163Y-36892008D01*
X34215819Y-36936477D01*
X34167766Y-36946000D01*
X32937425Y-36946000D01*
X32912847Y-36943579D01*
X32900000Y-36941024D01*
X32887829Y-36943445D01*
X32875419Y-36943445D01*
X32875419Y-36942802D01*
X32864674Y-36943473D01*
X32660509Y-36928871D01*
X32642715Y-36926313D01*
X32416899Y-36877190D01*
X32399650Y-36872125D01*
X32222390Y-36806011D01*
X32183123Y-36791365D01*
X32166774Y-36783898D01*
X31963951Y-36673148D01*
X31948827Y-36663429D01*
X31910926Y-36635056D01*
X31763824Y-36524937D01*
X31750238Y-36513164D01*
X31586836Y-36349762D01*
X31575063Y-36336176D01*
X31496241Y-36230882D01*
X31436569Y-36151170D01*
X31426852Y-36136049D01*
X31368731Y-36029609D01*
X34215232Y-36029609D01*
X34218052Y-36043031D01*
X34229513Y-36046000D01*
X34727885Y-36046000D01*
X34743124Y-36041525D01*
X34744329Y-36040135D01*
X34746000Y-36032452D01*
X34746000Y-35506442D01*
X34742027Y-35492911D01*
X34734129Y-35491776D01*
X34608216Y-35528357D01*
X34593780Y-35534604D01*
X34466501Y-35609876D01*
X34454074Y-35619516D01*
X34349516Y-35724074D01*
X34339876Y-35736501D01*
X34264604Y-35863780D01*
X34258357Y-35878216D01*
X34216688Y-36021641D01*
X34215232Y-36029609D01*
X31368731Y-36029609D01*
X31316102Y-35933226D01*
X31308633Y-35916873D01*
X31300561Y-35895229D01*
X31248121Y-35754633D01*
X31227875Y-35700350D01*
X31222810Y-35683101D01*
X31173687Y-35457285D01*
X31171129Y-35439491D01*
X31156527Y-35235326D01*
X31157198Y-35224581D01*
X31156555Y-35224581D01*
X31156555Y-35212171D01*
X31158976Y-35200000D01*
X31156421Y-35187153D01*
X31154000Y-35162575D01*
X31154000Y-32140259D01*
X31174002Y-32072138D01*
X31227658Y-32025645D01*
X31297932Y-32015541D01*
X31362512Y-32045035D01*
X31400896Y-32104761D01*
X31403579Y-32115679D01*
X31410266Y-32149301D01*
X31417161Y-32159621D01*
X31417162Y-32159622D01*
X31446603Y-32203683D01*
X31466516Y-32233484D01*
X31476832Y-32240377D01*
X31535560Y-32279618D01*
X31550699Y-32289734D01*
X31569034Y-32293381D01*
X31611559Y-32301840D01*
X31674469Y-32334748D01*
X31709600Y-32396443D01*
X31705296Y-32449711D01*
X31710266Y-32450699D01*
X31695500Y-32524933D01*
X31695501Y-34225066D01*
X31710266Y-34299301D01*
X31766516Y-34383484D01*
X31850699Y-34439734D01*
X31924933Y-34454500D01*
X32599890Y-34454500D01*
X33275066Y-34454499D01*
X33310818Y-34447388D01*
X33337126Y-34442156D01*
X33337128Y-34442155D01*
X33349301Y-34439734D01*
X33359621Y-34432839D01*
X33359622Y-34432838D01*
X33423168Y-34390377D01*
X33433484Y-34383484D01*
X33489734Y-34299301D01*
X33504500Y-34225067D01*
X33504500Y-33942831D01*
X37148202Y-33942831D01*
X37154763Y-33946000D01*
X37847885Y-33946000D01*
X37863124Y-33941525D01*
X37864329Y-33940135D01*
X37866000Y-33932452D01*
X37866000Y-33242076D01*
X37862027Y-33228545D01*
X37854232Y-33227425D01*
X37746479Y-33259138D01*
X37735111Y-33263731D01*
X37570846Y-33349607D01*
X37560585Y-33356321D01*
X37416127Y-33472468D01*
X37407368Y-33481046D01*
X37288222Y-33623039D01*
X37281292Y-33633159D01*
X37191998Y-33795585D01*
X37187166Y-33806858D01*
X37148506Y-33928731D01*
X37148202Y-33942831D01*
X33504500Y-33942831D01*
X33504499Y-33094740D01*
X33524501Y-33026619D01*
X33541404Y-33005645D01*
X33618144Y-32928905D01*
X33680456Y-32894879D01*
X33707239Y-32892000D01*
X34019501Y-32892000D01*
X34087622Y-32912002D01*
X34134115Y-32965658D01*
X34145501Y-33018000D01*
X34145501Y-33225066D01*
X34160266Y-33299301D01*
X34167161Y-33309620D01*
X34167162Y-33309622D01*
X34193880Y-33349607D01*
X34216516Y-33383484D01*
X34300699Y-33439734D01*
X34374933Y-33454500D01*
X35174870Y-33454500D01*
X35975066Y-33454499D01*
X36010818Y-33447388D01*
X36037126Y-33442156D01*
X36037128Y-33442155D01*
X36049301Y-33439734D01*
X36059621Y-33432839D01*
X36059622Y-33432838D01*
X36123168Y-33390377D01*
X36133484Y-33383484D01*
X36189734Y-33299301D01*
X36204500Y-33225067D01*
X36204499Y-32032175D01*
X36224501Y-31964055D01*
X36254934Y-31931350D01*
X36305724Y-31893285D01*
X36318285Y-31880724D01*
X36394786Y-31778649D01*
X36403324Y-31763054D01*
X36448478Y-31642606D01*
X36452105Y-31627351D01*
X36457631Y-31576486D01*
X36458000Y-31569672D01*
X36458000Y-31543115D01*
X36453525Y-31527876D01*
X36452135Y-31526671D01*
X36444452Y-31525000D01*
X36010100Y-31525000D01*
X35985519Y-31522579D01*
X35981135Y-31521707D01*
X35975067Y-31520500D01*
X35175130Y-31520500D01*
X34374934Y-31520501D01*
X34365193Y-31522439D01*
X34364486Y-31522579D01*
X34339907Y-31525000D01*
X34080116Y-31525000D01*
X34064877Y-31529475D01*
X34063672Y-31530865D01*
X34062001Y-31538548D01*
X34062001Y-31569669D01*
X34062371Y-31576490D01*
X34067895Y-31627352D01*
X34071521Y-31642604D01*
X34116676Y-31763054D01*
X34129522Y-31786517D01*
X34126346Y-31788256D01*
X34145171Y-31838589D01*
X34145500Y-31847691D01*
X34145500Y-31957000D01*
X34125498Y-32025121D01*
X34071842Y-32071614D01*
X34019500Y-32083000D01*
X33930500Y-32083000D01*
X33862379Y-32062998D01*
X33815886Y-32009342D01*
X33804500Y-31957000D01*
X33804499Y-31031123D01*
X33804499Y-31024934D01*
X33796629Y-30985363D01*
X33792156Y-30962874D01*
X33792155Y-30962872D01*
X33789734Y-30950699D01*
X33759727Y-30905790D01*
X33740377Y-30876832D01*
X33733484Y-30866516D01*
X33649301Y-30810266D01*
X33575067Y-30795500D01*
X33130500Y-30795500D01*
X33062379Y-30775498D01*
X33015886Y-30721842D01*
X33004500Y-30669500D01*
X33004500Y-30130499D01*
X33024502Y-30062378D01*
X33078158Y-30015885D01*
X33130500Y-30004499D01*
X33575066Y-30004499D01*
X33610818Y-29997388D01*
X33637126Y-29992156D01*
X33637128Y-29992155D01*
X33649301Y-29989734D01*
X33659621Y-29982839D01*
X33659622Y-29982838D01*
X33723168Y-29940377D01*
X33733484Y-29933484D01*
X33789734Y-29849301D01*
X33804500Y-29775067D01*
X33804499Y-28043000D01*
X33824501Y-27974879D01*
X33878157Y-27928386D01*
X33930499Y-27917000D01*
X34019501Y-27917000D01*
X34087622Y-27937002D01*
G37*
%TD.AperFunction*%
%TA.AperFunction,Conductor*%
G36*
X45094992Y-31819161D02*
G01*
X45196019Y-31832462D01*
X45204228Y-31833000D01*
X45769500Y-31833000D01*
X45837621Y-31853002D01*
X45884114Y-31906658D01*
X45895500Y-31959000D01*
X45895500Y-32184863D01*
X45875498Y-32252984D01*
X45821842Y-32299477D01*
X45751568Y-32309581D01*
X45734346Y-32305860D01*
X45691394Y-32293381D01*
X45677295Y-32293421D01*
X45674000Y-32300691D01*
X45674000Y-33893558D01*
X45677973Y-33907089D01*
X45685871Y-33908224D01*
X45811784Y-33871643D01*
X45826220Y-33865396D01*
X45953499Y-33790124D01*
X45965926Y-33780484D01*
X46053884Y-33692526D01*
X46116196Y-33658500D01*
X46162689Y-33657172D01*
X46191548Y-33661743D01*
X46204067Y-33663726D01*
X46204069Y-33663726D01*
X46208955Y-33664500D01*
X46232398Y-33664500D01*
X46483723Y-33664499D01*
X46551842Y-33684501D01*
X46598335Y-33738156D01*
X46608440Y-33808430D01*
X46590409Y-33857535D01*
X46525613Y-33960657D01*
X46474626Y-34106369D01*
X46473833Y-34113404D01*
X46472572Y-34118930D01*
X46437912Y-34180892D01*
X46375255Y-34214279D01*
X46349731Y-34216891D01*
X45428953Y-34216891D01*
X45360832Y-34196889D01*
X45339858Y-34179986D01*
X45194357Y-34034485D01*
X45160331Y-33972173D01*
X45165396Y-33901358D01*
X45166000Y-33899894D01*
X45166000Y-32306442D01*
X45162027Y-32292911D01*
X45154129Y-32291776D01*
X45101365Y-32307105D01*
X45030368Y-32306902D01*
X44970752Y-32268348D01*
X44941444Y-32203683D01*
X44940212Y-32186108D01*
X44940212Y-31941654D01*
X44960214Y-31873533D01*
X45013870Y-31827040D01*
X45084144Y-31816936D01*
X45094992Y-31819161D01*
G37*
%TD.AperFunction*%
%TA.AperFunction,Conductor*%
G36*
X40708619Y-22474002D02*
G01*
X40755112Y-22527658D01*
X40765216Y-22597932D01*
X40735722Y-22662512D01*
X40729593Y-22669095D01*
X40719131Y-22679557D01*
X40709824Y-22691426D01*
X40628921Y-22825012D01*
X40622715Y-22838757D01*
X40575744Y-22988644D01*
X40573131Y-23001694D01*
X40567266Y-23065521D01*
X40567000Y-23071309D01*
X40567000Y-23127885D01*
X40571475Y-23143124D01*
X40572865Y-23144329D01*
X40580548Y-23146000D01*
X41603000Y-23146000D01*
X41671121Y-23166002D01*
X41717614Y-23219658D01*
X41729000Y-23272000D01*
X41729000Y-24364884D01*
X41733475Y-24380123D01*
X41734865Y-24381328D01*
X41739294Y-24382291D01*
X41798315Y-24376868D01*
X41811351Y-24374257D01*
X41961243Y-24327285D01*
X41974988Y-24321079D01*
X42108574Y-24240176D01*
X42120443Y-24230869D01*
X42230869Y-24120443D01*
X42240176Y-24108574D01*
X42321079Y-23974988D01*
X42330409Y-23954323D01*
X42332856Y-23955428D01*
X42365245Y-23906963D01*
X42430345Y-23878633D01*
X42500426Y-23889996D01*
X42547387Y-23928792D01*
X42568772Y-23957744D01*
X42599990Y-24000010D01*
X42709924Y-24081209D01*
X42838873Y-24126493D01*
X42846515Y-24127215D01*
X42846518Y-24127216D01*
X42861421Y-24128624D01*
X42870685Y-24129500D01*
X43124828Y-24129500D01*
X43379314Y-24129499D01*
X43382262Y-24129220D01*
X43382271Y-24129220D01*
X43403478Y-24127216D01*
X43403480Y-24127216D01*
X43411127Y-24126493D01*
X43540076Y-24081209D01*
X43650010Y-24000010D01*
X43682783Y-23955639D01*
X43739344Y-23912729D01*
X43784133Y-23904500D01*
X44693943Y-23904500D01*
X44762064Y-23924502D01*
X44769508Y-23929674D01*
X44806962Y-23957744D01*
X44806964Y-23957745D01*
X44814147Y-23963128D01*
X44892333Y-23992439D01*
X44897879Y-23994518D01*
X44954643Y-24037160D01*
X44979343Y-24103721D01*
X44964135Y-24173070D01*
X44913849Y-24223188D01*
X44897880Y-24230481D01*
X44885995Y-24234937D01*
X44822551Y-24258721D01*
X44822548Y-24258722D01*
X44814147Y-24261872D01*
X44705670Y-24343170D01*
X44624372Y-24451647D01*
X44621222Y-24460048D01*
X44621221Y-24460051D01*
X44604828Y-24503779D01*
X44576786Y-24578581D01*
X44575933Y-24586434D01*
X44575932Y-24586438D01*
X44570869Y-24633048D01*
X44570500Y-24636447D01*
X44570501Y-24897357D01*
X44570501Y-25079678D01*
X44550499Y-25147799D01*
X44496844Y-25194292D01*
X44426570Y-25204396D01*
X44361989Y-25174903D01*
X44355483Y-25168851D01*
X44312572Y-25126014D01*
X44301160Y-25117002D01*
X44168120Y-25034996D01*
X44154939Y-25028849D01*
X44006186Y-24979509D01*
X43992810Y-24976642D01*
X43901903Y-24967328D01*
X43895486Y-24967000D01*
X43872115Y-24967000D01*
X43856876Y-24971475D01*
X43855671Y-24972865D01*
X43854000Y-24980548D01*
X43854000Y-25652885D01*
X43858475Y-25668124D01*
X43859865Y-25669329D01*
X43867548Y-25671000D01*
X44564885Y-25671000D01*
X44580124Y-25666525D01*
X44581329Y-25665135D01*
X44583000Y-25657452D01*
X44583000Y-25654562D01*
X44582663Y-25648052D01*
X44580523Y-25627431D01*
X44593386Y-25557609D01*
X44641956Y-25505826D01*
X44710811Y-25488522D01*
X44781413Y-25513596D01*
X44794381Y-25523315D01*
X44814147Y-25538128D01*
X44822548Y-25541278D01*
X44822551Y-25541279D01*
X44873199Y-25560266D01*
X44941081Y-25585714D01*
X44948934Y-25586567D01*
X44948938Y-25586568D01*
X44995548Y-25591631D01*
X44995552Y-25591631D01*
X44998947Y-25592000D01*
X45082000Y-25592000D01*
X45150121Y-25612002D01*
X45196614Y-25665658D01*
X45208000Y-25718000D01*
X45208000Y-27221214D01*
X45187998Y-27289335D01*
X45135250Y-27335409D01*
X45063332Y-27368945D01*
X45052871Y-27373823D01*
X44973823Y-27452871D01*
X44969164Y-27462863D01*
X44969163Y-27462864D01*
X44930652Y-27545451D01*
X44930651Y-27545454D01*
X44926578Y-27554189D01*
X44925320Y-27563746D01*
X44925319Y-27563749D01*
X44921974Y-27589162D01*
X44920500Y-27600356D01*
X44920500Y-27799644D01*
X44921038Y-27803730D01*
X44921038Y-27803731D01*
X44924690Y-27831467D01*
X44926578Y-27845811D01*
X44930652Y-27854548D01*
X44930653Y-27854551D01*
X44950331Y-27896751D01*
X44960992Y-27966942D01*
X44950331Y-28003249D01*
X44931795Y-28043000D01*
X44926578Y-28054189D01*
X44925320Y-28063746D01*
X44925319Y-28063749D01*
X44921284Y-28094398D01*
X44920500Y-28100356D01*
X44920500Y-28299644D01*
X44926578Y-28345811D01*
X44930652Y-28354548D01*
X44930653Y-28354551D01*
X44950331Y-28396751D01*
X44960992Y-28466942D01*
X44950331Y-28503249D01*
X44932205Y-28542121D01*
X44926578Y-28554189D01*
X44925320Y-28563746D01*
X44925319Y-28563749D01*
X44922046Y-28588614D01*
X44920500Y-28600356D01*
X44920500Y-28799644D01*
X44921038Y-28803730D01*
X44921038Y-28803731D01*
X44924646Y-28831134D01*
X44926578Y-28845811D01*
X44930652Y-28854548D01*
X44930653Y-28854551D01*
X44950331Y-28896751D01*
X44960992Y-28966942D01*
X44950331Y-29003249D01*
X44930653Y-29045449D01*
X44926578Y-29054189D01*
X44925320Y-29063746D01*
X44925319Y-29063749D01*
X44921146Y-29095452D01*
X44920500Y-29100356D01*
X44920500Y-29299644D01*
X44921038Y-29303730D01*
X44921038Y-29303731D01*
X44922678Y-29316185D01*
X44926578Y-29345811D01*
X44930652Y-29354548D01*
X44930653Y-29354551D01*
X44950331Y-29396751D01*
X44960992Y-29466942D01*
X44950331Y-29503249D01*
X44930653Y-29545449D01*
X44926578Y-29554189D01*
X44925320Y-29563746D01*
X44925319Y-29563749D01*
X44923410Y-29578254D01*
X44920500Y-29600356D01*
X44920500Y-29799644D01*
X44921038Y-29803730D01*
X44921038Y-29803731D01*
X44925206Y-29835388D01*
X44926578Y-29845811D01*
X44930652Y-29854548D01*
X44930653Y-29854551D01*
X44950331Y-29896751D01*
X44960992Y-29966942D01*
X44950331Y-30003249D01*
X44935937Y-30034118D01*
X44926578Y-30054189D01*
X44920500Y-30100356D01*
X44920500Y-30299644D01*
X44921038Y-30303730D01*
X44921038Y-30303731D01*
X44924901Y-30333071D01*
X44926578Y-30345811D01*
X44930652Y-30354548D01*
X44930653Y-30354551D01*
X44950331Y-30396751D01*
X44960992Y-30466942D01*
X44950331Y-30503249D01*
X44930653Y-30545449D01*
X44926578Y-30554189D01*
X44925320Y-30563746D01*
X44925319Y-30563749D01*
X44923064Y-30580879D01*
X44920500Y-30600356D01*
X44920500Y-30604480D01*
X44920289Y-30607700D01*
X44895876Y-30674367D01*
X44871263Y-30699424D01*
X44837160Y-30725592D01*
X44825592Y-30737160D01*
X44799493Y-30771173D01*
X44742155Y-30813040D01*
X44671284Y-30817262D01*
X44610435Y-30783564D01*
X43860989Y-30034118D01*
X43845255Y-30014637D01*
X43844550Y-30013862D01*
X43838900Y-30005112D01*
X43812051Y-29983946D01*
X43807514Y-29979914D01*
X43807457Y-29979982D01*
X43803499Y-29976628D01*
X43799820Y-29972949D01*
X43795594Y-29969929D01*
X43795582Y-29969919D01*
X43783851Y-29961536D01*
X43779103Y-29957972D01*
X43765349Y-29947129D01*
X43738230Y-29925750D01*
X43729465Y-29922672D01*
X43721907Y-29917271D01*
X43711931Y-29914288D01*
X43711928Y-29914286D01*
X43680484Y-29904883D01*
X43672042Y-29902358D01*
X43666400Y-29900525D01*
X43624764Y-29885903D01*
X43624758Y-29885902D01*
X43617281Y-29883276D01*
X43611635Y-29882787D01*
X43608921Y-29882787D01*
X43606209Y-29882670D01*
X43606193Y-29882665D01*
X43606201Y-29882475D01*
X43605386Y-29882424D01*
X43599091Y-29880541D01*
X43544399Y-29882690D01*
X43539452Y-29882787D01*
X42755220Y-29882787D01*
X42687099Y-29862785D01*
X42666125Y-29845882D01*
X42529442Y-29709199D01*
X42513708Y-29689718D01*
X42513003Y-29688943D01*
X42507353Y-29680193D01*
X42499175Y-29673746D01*
X42492164Y-29666041D01*
X42493985Y-29664384D01*
X42461378Y-29618474D01*
X42454500Y-29577412D01*
X42454500Y-29368166D01*
X42439498Y-29273445D01*
X42381326Y-29159277D01*
X42290723Y-29068674D01*
X42176555Y-29010502D01*
X42081834Y-28995500D01*
X40993166Y-28995500D01*
X40898445Y-29010502D01*
X40784277Y-29068674D01*
X40693674Y-29159277D01*
X40635502Y-29273445D01*
X40620500Y-29368166D01*
X40620500Y-29731834D01*
X40621274Y-29736719D01*
X40621275Y-29736736D01*
X40623051Y-29747949D01*
X40613950Y-29818359D01*
X40587697Y-29856750D01*
X40506551Y-29937896D01*
X40496911Y-29950322D01*
X40420352Y-30079779D01*
X40414107Y-30094210D01*
X40388339Y-30182902D01*
X40350125Y-30242737D01*
X40285629Y-30272414D01*
X40215327Y-30262510D01*
X40161539Y-30216171D01*
X40155075Y-30204951D01*
X40110827Y-30118110D01*
X40110826Y-30118109D01*
X40106326Y-30109277D01*
X40099315Y-30102266D01*
X40096987Y-30099062D01*
X40073128Y-30032195D01*
X40089207Y-29963043D01*
X40096987Y-29950938D01*
X40099315Y-29947734D01*
X40106326Y-29940723D01*
X40114774Y-29924144D01*
X40146038Y-29862785D01*
X40164498Y-29826555D01*
X40179500Y-29731834D01*
X40179500Y-29368166D01*
X40164498Y-29273445D01*
X40106326Y-29159277D01*
X40015723Y-29068674D01*
X39901555Y-29010502D01*
X39806834Y-28995500D01*
X39780223Y-28995500D01*
X39712102Y-28975498D01*
X39666276Y-28922612D01*
X39620882Y-28975303D01*
X39552459Y-28995500D01*
X38718166Y-28995500D01*
X38623445Y-29010502D01*
X38509277Y-29068674D01*
X38418674Y-29159277D01*
X38360502Y-29273445D01*
X38358951Y-29283236D01*
X38358951Y-29283237D01*
X38348126Y-29351587D01*
X38317714Y-29415740D01*
X38257446Y-29453267D01*
X38223677Y-29457877D01*
X38082351Y-29457877D01*
X38057442Y-29455226D01*
X38056398Y-29455177D01*
X38046222Y-29452986D01*
X38012274Y-29457004D01*
X38006219Y-29457361D01*
X38006226Y-29457449D01*
X38001050Y-29457877D01*
X37995846Y-29457877D01*
X37976470Y-29461102D01*
X37970641Y-29461931D01*
X37918920Y-29468053D01*
X37910544Y-29472075D01*
X37901382Y-29473600D01*
X37855562Y-29498323D01*
X37850299Y-29501004D01*
X37810511Y-29520110D01*
X37810508Y-29520112D01*
X37803363Y-29523543D01*
X37799025Y-29527190D01*
X37797099Y-29529116D01*
X37795109Y-29530942D01*
X37795099Y-29530947D01*
X37794969Y-29530805D01*
X37794349Y-29531352D01*
X37788566Y-29534472D01*
X37781497Y-29542119D01*
X37781496Y-29542120D01*
X37751391Y-29574688D01*
X37747961Y-29578254D01*
X37554138Y-29772077D01*
X37491826Y-29806103D01*
X37421011Y-29801038D01*
X37375948Y-29772077D01*
X36848358Y-29244487D01*
X36814332Y-29182175D01*
X36819397Y-29111360D01*
X36855203Y-29059940D01*
X36872020Y-29045449D01*
X36884082Y-29035056D01*
X36888368Y-29028443D01*
X36950078Y-28989957D01*
X36957806Y-28988940D01*
X36965436Y-28985779D01*
X36965438Y-28985779D01*
X37097227Y-28931191D01*
X37097228Y-28931190D01*
X37104858Y-28928030D01*
X37185685Y-28866009D01*
X37224584Y-28836160D01*
X37231134Y-28831134D01*
X37311888Y-28725895D01*
X37323002Y-28711411D01*
X37323003Y-28711409D01*
X37328030Y-28704858D01*
X37339880Y-28676250D01*
X37385781Y-28565434D01*
X37385782Y-28565430D01*
X37388940Y-28557806D01*
X37390017Y-28549626D01*
X37390018Y-28549622D01*
X37394936Y-28512264D01*
X37423659Y-28447337D01*
X37482924Y-28408246D01*
X37559525Y-28409118D01*
X37593811Y-28420490D01*
X37607190Y-28423358D01*
X37698097Y-28432672D01*
X37704513Y-28433000D01*
X37727885Y-28433000D01*
X37743124Y-28428525D01*
X37744329Y-28427135D01*
X37746000Y-28419452D01*
X37746000Y-27347000D01*
X37766002Y-27278879D01*
X37819658Y-27232386D01*
X37872000Y-27221000D01*
X38128000Y-27221000D01*
X38196121Y-27241002D01*
X38242614Y-27294658D01*
X38254000Y-27347000D01*
X38254000Y-28414885D01*
X38258475Y-28430124D01*
X38259865Y-28431329D01*
X38267548Y-28433000D01*
X38295438Y-28433000D01*
X38301953Y-28432663D01*
X38394057Y-28423106D01*
X38407456Y-28420212D01*
X38556107Y-28370619D01*
X38569286Y-28364445D01*
X38702173Y-28282212D01*
X38713574Y-28273176D01*
X38823986Y-28162571D01*
X38832998Y-28151160D01*
X38908741Y-28028282D01*
X38961513Y-27980789D01*
X39031585Y-27969365D01*
X39096709Y-27997639D01*
X39136208Y-28056633D01*
X39142001Y-28094398D01*
X39142001Y-28188984D01*
X39142195Y-28193920D01*
X39144430Y-28222336D01*
X39146730Y-28234931D01*
X39189107Y-28380790D01*
X39195352Y-28395221D01*
X39271911Y-28524678D01*
X39281551Y-28537104D01*
X39387896Y-28643449D01*
X39400322Y-28653089D01*
X39529779Y-28729648D01*
X39544210Y-28735893D01*
X39587613Y-28748503D01*
X39647448Y-28786717D01*
X39666356Y-28827809D01*
X39684999Y-28786988D01*
X39688674Y-28783794D01*
X39696000Y-28767630D01*
X39696000Y-28761878D01*
X40204000Y-28761878D01*
X40207973Y-28775409D01*
X40215871Y-28776544D01*
X40355790Y-28735893D01*
X40370221Y-28729648D01*
X40499678Y-28653089D01*
X40512104Y-28643449D01*
X40618449Y-28537104D01*
X40628089Y-28524678D01*
X40704648Y-28395221D01*
X40710893Y-28380790D01*
X40753269Y-28234935D01*
X40755570Y-28222333D01*
X40757807Y-28193916D01*
X40758000Y-28188986D01*
X40758000Y-27809615D01*
X40753525Y-27794376D01*
X40752135Y-27793171D01*
X40744452Y-27791500D01*
X40222115Y-27791500D01*
X40206876Y-27795975D01*
X40205671Y-27797365D01*
X40204000Y-27805048D01*
X40204000Y-28761878D01*
X39696000Y-28761878D01*
X39696000Y-27409500D01*
X39716002Y-27341379D01*
X39769658Y-27294886D01*
X39822000Y-27283500D01*
X40739884Y-27283500D01*
X40755123Y-27279025D01*
X40756328Y-27277635D01*
X40757999Y-27269952D01*
X40757999Y-26886017D01*
X40757805Y-26881080D01*
X40755570Y-26852664D01*
X40753269Y-26840063D01*
X40746177Y-26815655D01*
X40746378Y-26744659D01*
X40784931Y-26685042D01*
X40849595Y-26655732D01*
X40867173Y-26654500D01*
X41081834Y-26654500D01*
X41176555Y-26639498D01*
X41177020Y-26642435D01*
X41232069Y-26640867D01*
X41292864Y-26677535D01*
X41324183Y-26741250D01*
X41316887Y-26804794D01*
X41318068Y-26805178D01*
X41316173Y-26811012D01*
X41316084Y-26811783D01*
X41315547Y-26812937D01*
X41315003Y-26814611D01*
X41310502Y-26823445D01*
X41295500Y-26918166D01*
X41295500Y-27209244D01*
X41283508Y-27262891D01*
X41246552Y-27341428D01*
X41245067Y-27349211D01*
X41245066Y-27349215D01*
X41221828Y-27471035D01*
X41216749Y-27497659D01*
X41218407Y-27524016D01*
X41226221Y-27648204D01*
X41226736Y-27656394D01*
X41229185Y-27663930D01*
X41229185Y-27663932D01*
X41272541Y-27797365D01*
X41275885Y-27807658D01*
X41280133Y-27814351D01*
X41283509Y-27821526D01*
X41295500Y-27875173D01*
X41295500Y-28156834D01*
X41310502Y-28251555D01*
X41368674Y-28365723D01*
X41459277Y-28456326D01*
X41573445Y-28514498D01*
X41668166Y-28529500D01*
X42031834Y-28529500D01*
X42126555Y-28514498D01*
X42193028Y-28480628D01*
X42262804Y-28467524D01*
X42328589Y-28494224D01*
X42369496Y-28552251D01*
X42375237Y-28577102D01*
X42377659Y-28596269D01*
X42385431Y-28657794D01*
X42443981Y-28805674D01*
X42448639Y-28812085D01*
X42448640Y-28812087D01*
X42501787Y-28885238D01*
X42537467Y-28934347D01*
X42660016Y-29035729D01*
X42667187Y-29039103D01*
X42667188Y-29039104D01*
X42680672Y-29045449D01*
X42803928Y-29103448D01*
X42811711Y-29104933D01*
X42811715Y-29104934D01*
X42952374Y-29131766D01*
X42960159Y-29133251D01*
X43039526Y-29128258D01*
X43110983Y-29123762D01*
X43110985Y-29123762D01*
X43118894Y-29123264D01*
X43126430Y-29120815D01*
X43126432Y-29120815D01*
X43262616Y-29076566D01*
X43262619Y-29076565D01*
X43270158Y-29074115D01*
X43372841Y-29008951D01*
X43397752Y-28993142D01*
X43397753Y-28993141D01*
X43404447Y-28988893D01*
X43410432Y-28982519D01*
X43410985Y-28982194D01*
X43415982Y-28978061D01*
X43416649Y-28978867D01*
X43471644Y-28946551D01*
X43542584Y-28949387D01*
X43582600Y-28971684D01*
X43611388Y-28995500D01*
X43639733Y-29018949D01*
X43660016Y-29035729D01*
X43667187Y-29039103D01*
X43667188Y-29039104D01*
X43680672Y-29045449D01*
X43803928Y-29103448D01*
X43811711Y-29104933D01*
X43811715Y-29104934D01*
X43952374Y-29131766D01*
X43960159Y-29133251D01*
X44039526Y-29128258D01*
X44110983Y-29123762D01*
X44110985Y-29123762D01*
X44118894Y-29123264D01*
X44126430Y-29120815D01*
X44126432Y-29120815D01*
X44262616Y-29076566D01*
X44262619Y-29076565D01*
X44270158Y-29074115D01*
X44404447Y-28988893D01*
X44440909Y-28950066D01*
X44507900Y-28878728D01*
X44513324Y-28872952D01*
X44589946Y-28733576D01*
X44629500Y-28579524D01*
X44629500Y-27953226D01*
X44630022Y-27942157D01*
X44631686Y-27934712D01*
X44629562Y-27867114D01*
X44629500Y-27863157D01*
X44629500Y-27835397D01*
X44629000Y-27831438D01*
X44628070Y-27819618D01*
X44626940Y-27783669D01*
X44626691Y-27775742D01*
X44621091Y-27756465D01*
X44617086Y-27737125D01*
X44614569Y-27717206D01*
X44611650Y-27709834D01*
X44611649Y-27709829D01*
X44598411Y-27676393D01*
X44594566Y-27665165D01*
X44589638Y-27648204D01*
X44582318Y-27623008D01*
X44572104Y-27605737D01*
X44563404Y-27587978D01*
X44558940Y-27576702D01*
X44558938Y-27576698D01*
X44556019Y-27569326D01*
X44530216Y-27533811D01*
X44523701Y-27523892D01*
X44505395Y-27492938D01*
X44505392Y-27492934D01*
X44501355Y-27486108D01*
X44487170Y-27471923D01*
X44474328Y-27456888D01*
X44472515Y-27454392D01*
X44462533Y-27440653D01*
X44428704Y-27412667D01*
X44419925Y-27404678D01*
X44366404Y-27351157D01*
X44332378Y-27288845D01*
X44329499Y-27262062D01*
X44329499Y-27204612D01*
X44328049Y-27191262D01*
X44323984Y-27153834D01*
X44323983Y-27153830D01*
X44323130Y-27145976D01*
X44274917Y-27017365D01*
X44269537Y-27010186D01*
X44269535Y-27010183D01*
X44230013Y-26957450D01*
X44220163Y-26944307D01*
X44195315Y-26877802D01*
X44210367Y-26808419D01*
X44254686Y-26761598D01*
X44302173Y-26732212D01*
X44313574Y-26723176D01*
X44423986Y-26612571D01*
X44432998Y-26601160D01*
X44515004Y-26468120D01*
X44521151Y-26454939D01*
X44570491Y-26306186D01*
X44573358Y-26292810D01*
X44582672Y-26201903D01*
X44582929Y-26196874D01*
X44578525Y-26181876D01*
X44577135Y-26180671D01*
X44569452Y-26179000D01*
X42635115Y-26179000D01*
X42619876Y-26183475D01*
X42618671Y-26184865D01*
X42617000Y-26192548D01*
X42617000Y-26195438D01*
X42617337Y-26201953D01*
X42626894Y-26294057D01*
X42629788Y-26307456D01*
X42679381Y-26456107D01*
X42685555Y-26469286D01*
X42767788Y-26602173D01*
X42776828Y-26613579D01*
X42856215Y-26692827D01*
X42890295Y-26755109D01*
X42885292Y-26825929D01*
X42842795Y-26882802D01*
X42776297Y-26907671D01*
X42767198Y-26908000D01*
X42506885Y-26908000D01*
X42438764Y-26887998D01*
X42392271Y-26834342D01*
X42390506Y-26829808D01*
X42389498Y-26823445D01*
X42331326Y-26709277D01*
X42240723Y-26618674D01*
X42126555Y-26560502D01*
X42031834Y-26545500D01*
X41668166Y-26545500D01*
X41573445Y-26560502D01*
X41572980Y-26557565D01*
X41517931Y-26559133D01*
X41457136Y-26522465D01*
X41425817Y-26458750D01*
X41433113Y-26395206D01*
X41431932Y-26394822D01*
X41433827Y-26388988D01*
X41433916Y-26388217D01*
X41434453Y-26387063D01*
X41434997Y-26385389D01*
X41439498Y-26376555D01*
X41454500Y-26281834D01*
X41454500Y-25992903D01*
X41470086Y-25932202D01*
X41486126Y-25903025D01*
X41486127Y-25903023D01*
X41489946Y-25896076D01*
X41494937Y-25876638D01*
X41501341Y-25857934D01*
X41506161Y-25846796D01*
X41506161Y-25846794D01*
X41509309Y-25839521D01*
X41516176Y-25796161D01*
X41518584Y-25784538D01*
X41527529Y-25749701D01*
X41527529Y-25749700D01*
X41529500Y-25742024D01*
X41529500Y-25721961D01*
X41531051Y-25702250D01*
X41532950Y-25690260D01*
X41534190Y-25682431D01*
X41531420Y-25653126D01*
X42617071Y-25653126D01*
X42621475Y-25668124D01*
X42622865Y-25669329D01*
X42630548Y-25671000D01*
X43327885Y-25671000D01*
X43343124Y-25666525D01*
X43344329Y-25665135D01*
X43346000Y-25657452D01*
X43346000Y-24985115D01*
X43341525Y-24969876D01*
X43340135Y-24968671D01*
X43332452Y-24967000D01*
X43304562Y-24967000D01*
X43298047Y-24967337D01*
X43205943Y-24976894D01*
X43192544Y-24979788D01*
X43043893Y-25029381D01*
X43030714Y-25035555D01*
X42897827Y-25117788D01*
X42886426Y-25126824D01*
X42776014Y-25237429D01*
X42767002Y-25248840D01*
X42684996Y-25381880D01*
X42678849Y-25395061D01*
X42629509Y-25543814D01*
X42626642Y-25557190D01*
X42617328Y-25648097D01*
X42617071Y-25653126D01*
X41531420Y-25653126D01*
X41530059Y-25638727D01*
X41529500Y-25626870D01*
X41529500Y-25315729D01*
X41530022Y-25304663D01*
X41531687Y-25297212D01*
X41529562Y-25229582D01*
X41529500Y-25225625D01*
X41529500Y-25197897D01*
X41529004Y-25193971D01*
X41528070Y-25182118D01*
X41527844Y-25174903D01*
X41526692Y-25138242D01*
X41521093Y-25118970D01*
X41517083Y-25099608D01*
X41515562Y-25087564D01*
X41515561Y-25087561D01*
X41514569Y-25079706D01*
X41511653Y-25072341D01*
X41511652Y-25072337D01*
X41498411Y-25038895D01*
X41494565Y-25027662D01*
X41484531Y-24993123D01*
X41484529Y-24993119D01*
X41482318Y-24985508D01*
X41472104Y-24968237D01*
X41463404Y-24950478D01*
X41458940Y-24939202D01*
X41458938Y-24939198D01*
X41456019Y-24931826D01*
X41430216Y-24896311D01*
X41423701Y-24886392D01*
X41405395Y-24855438D01*
X41405392Y-24855434D01*
X41401355Y-24848608D01*
X41387170Y-24834423D01*
X41374328Y-24819388D01*
X41362533Y-24803153D01*
X41328704Y-24775167D01*
X41319925Y-24767178D01*
X41146544Y-24593797D01*
X41112518Y-24531485D01*
X41117583Y-24460670D01*
X41160130Y-24403834D01*
X41200140Y-24383806D01*
X41218124Y-24378525D01*
X41219329Y-24377135D01*
X41221000Y-24369452D01*
X41221000Y-23672115D01*
X41216525Y-23656876D01*
X41215135Y-23655671D01*
X41207452Y-23654000D01*
X40585116Y-23654000D01*
X40569877Y-23658475D01*
X40568672Y-23659865D01*
X40567001Y-23667548D01*
X40567001Y-23710064D01*
X40546999Y-23778185D01*
X40493343Y-23824678D01*
X40423069Y-23834782D01*
X40358489Y-23805288D01*
X40351906Y-23799159D01*
X40091404Y-23538657D01*
X40057378Y-23476345D01*
X40054499Y-23449562D01*
X40054499Y-23273948D01*
X40048214Y-23216081D01*
X40023666Y-23150599D01*
X40003779Y-23097551D01*
X40003778Y-23097548D01*
X40000628Y-23089147D01*
X39919330Y-22980670D01*
X39810853Y-22899372D01*
X39802452Y-22896222D01*
X39802449Y-22896221D01*
X39720623Y-22865546D01*
X39683919Y-22851786D01*
X39676066Y-22850933D01*
X39676062Y-22850932D01*
X39629452Y-22845869D01*
X39629448Y-22845869D01*
X39626053Y-22845500D01*
X39362539Y-22845500D01*
X39098948Y-22845501D01*
X39041081Y-22851786D01*
X38989041Y-22871295D01*
X38922551Y-22896221D01*
X38922548Y-22896222D01*
X38914147Y-22899372D01*
X38805670Y-22980670D01*
X38724372Y-23089147D01*
X38721222Y-23097548D01*
X38721221Y-23097551D01*
X38701334Y-23150599D01*
X38676786Y-23216081D01*
X38675933Y-23223934D01*
X38675932Y-23223938D01*
X38672445Y-23256041D01*
X38670500Y-23273947D01*
X38670501Y-24126052D01*
X38676786Y-24183919D01*
X38692193Y-24225017D01*
X38714532Y-24284604D01*
X38724372Y-24310853D01*
X38805670Y-24419330D01*
X38914147Y-24500628D01*
X38922548Y-24503778D01*
X38922551Y-24503779D01*
X38996457Y-24531485D01*
X39041081Y-24548214D01*
X39048934Y-24549067D01*
X39048938Y-24549068D01*
X39095548Y-24554131D01*
X39095552Y-24554131D01*
X39098947Y-24554500D01*
X39274561Y-24554500D01*
X39342682Y-24574502D01*
X39363656Y-24591404D01*
X39692595Y-24920342D01*
X39852657Y-25080404D01*
X39886682Y-25142717D01*
X39881618Y-25213532D01*
X39839071Y-25270368D01*
X39772551Y-25295179D01*
X39763562Y-25295500D01*
X38549512Y-25295500D01*
X38489337Y-25280106D01*
X38482635Y-25275083D01*
X38474230Y-25271932D01*
X38361419Y-25229642D01*
X38361418Y-25229642D01*
X38354024Y-25226870D01*
X38346174Y-25226017D01*
X38346173Y-25226017D01*
X38298786Y-25220869D01*
X38298785Y-25220869D01*
X38295389Y-25220500D01*
X38000044Y-25220500D01*
X37704612Y-25220501D01*
X37701218Y-25220870D01*
X37701212Y-25220870D01*
X37653834Y-25226016D01*
X37653830Y-25226017D01*
X37645976Y-25226870D01*
X37568377Y-25255960D01*
X37529943Y-25270368D01*
X37517365Y-25275083D01*
X37510186Y-25280463D01*
X37510183Y-25280465D01*
X37426472Y-25343204D01*
X37407456Y-25357456D01*
X37402077Y-25364633D01*
X37330465Y-25460183D01*
X37330463Y-25460186D01*
X37325083Y-25467365D01*
X37321933Y-25475769D01*
X37321932Y-25475770D01*
X37287672Y-25567162D01*
X37276870Y-25595976D01*
X37270500Y-25654611D01*
X37270501Y-25903025D01*
X37270501Y-26052840D01*
X37250499Y-26120960D01*
X37196844Y-26167453D01*
X37126570Y-26177558D01*
X37061989Y-26148065D01*
X37055406Y-26141935D01*
X36306677Y-25393206D01*
X36299135Y-25383766D01*
X36298755Y-25384089D01*
X36292937Y-25377253D01*
X36288147Y-25369661D01*
X36248140Y-25334328D01*
X36242454Y-25328983D01*
X36231120Y-25317649D01*
X36222845Y-25311447D01*
X36215000Y-25305060D01*
X36186557Y-25279940D01*
X36179830Y-25273999D01*
X36171705Y-25270184D01*
X36168903Y-25268344D01*
X36150879Y-25257513D01*
X36146132Y-25253955D01*
X36103619Y-25197094D01*
X36098597Y-25126275D01*
X36132659Y-25063983D01*
X36146124Y-25052315D01*
X36235404Y-24985404D01*
X36258062Y-24955171D01*
X36316689Y-24876946D01*
X36316691Y-24876943D01*
X36322071Y-24869764D01*
X36372798Y-24734448D01*
X36376427Y-24701048D01*
X36379131Y-24676153D01*
X36379131Y-24676152D01*
X36379500Y-24672756D01*
X36379500Y-24455500D01*
X36399502Y-24387379D01*
X36453158Y-24340886D01*
X36505500Y-24329500D01*
X36550319Y-24329500D01*
X36618440Y-24349502D01*
X36651145Y-24379935D01*
X36675288Y-24412149D01*
X36680670Y-24419330D01*
X36789147Y-24500628D01*
X36797548Y-24503778D01*
X36797551Y-24503779D01*
X36871457Y-24531485D01*
X36916081Y-24548214D01*
X36923934Y-24549067D01*
X36923938Y-24549068D01*
X36970548Y-24554131D01*
X36970552Y-24554131D01*
X36973947Y-24554500D01*
X37237461Y-24554500D01*
X37501052Y-24554499D01*
X37558919Y-24548214D01*
X37613755Y-24527657D01*
X37677449Y-24503779D01*
X37677452Y-24503778D01*
X37685853Y-24500628D01*
X37794330Y-24419330D01*
X37875628Y-24310853D01*
X37885469Y-24284604D01*
X37910939Y-24216662D01*
X37923214Y-24183919D01*
X37924067Y-24176066D01*
X37924068Y-24176062D01*
X37929131Y-24129452D01*
X37929131Y-24129448D01*
X37929500Y-24126053D01*
X37929499Y-23273948D01*
X37923214Y-23216081D01*
X37898666Y-23150599D01*
X37878779Y-23097551D01*
X37878778Y-23097548D01*
X37875628Y-23089147D01*
X37794330Y-22980670D01*
X37685853Y-22899372D01*
X37677452Y-22896222D01*
X37677449Y-22896221D01*
X37595623Y-22865546D01*
X37558919Y-22851786D01*
X37551066Y-22850933D01*
X37551062Y-22850932D01*
X37504452Y-22845869D01*
X37504448Y-22845869D01*
X37501053Y-22845500D01*
X37237539Y-22845500D01*
X36973948Y-22845501D01*
X36916081Y-22851786D01*
X36864041Y-22871295D01*
X36797551Y-22896221D01*
X36797548Y-22896222D01*
X36789147Y-22899372D01*
X36680670Y-22980670D01*
X36675289Y-22987850D01*
X36675288Y-22987851D01*
X36651145Y-23020065D01*
X36594286Y-23062580D01*
X36550319Y-23070500D01*
X36340329Y-23070500D01*
X36272208Y-23050498D01*
X36247631Y-23027630D01*
X36247135Y-23028126D01*
X36240785Y-23021776D01*
X36235404Y-23014596D01*
X36199717Y-22987850D01*
X36126946Y-22933311D01*
X36126943Y-22933309D01*
X36119764Y-22927929D01*
X36010203Y-22886857D01*
X35991843Y-22879974D01*
X35991841Y-22879974D01*
X35984448Y-22877202D01*
X35976598Y-22876349D01*
X35976597Y-22876349D01*
X35926153Y-22870869D01*
X35926152Y-22870869D01*
X35922756Y-22870500D01*
X35077244Y-22870500D01*
X35073848Y-22870869D01*
X35073847Y-22870869D01*
X35023403Y-22876349D01*
X35023402Y-22876349D01*
X35015552Y-22877202D01*
X35008159Y-22879974D01*
X35008157Y-22879974D01*
X34989797Y-22886857D01*
X34880236Y-22927929D01*
X34873057Y-22933309D01*
X34873054Y-22933311D01*
X34800283Y-22987850D01*
X34764596Y-23014596D01*
X34759215Y-23021776D01*
X34683311Y-23123054D01*
X34683309Y-23123057D01*
X34677929Y-23130236D01*
X34627202Y-23265552D01*
X34620500Y-23327244D01*
X34620500Y-24672756D01*
X34620869Y-24676152D01*
X34620869Y-24676153D01*
X34623574Y-24701048D01*
X34627202Y-24734448D01*
X34677929Y-24869764D01*
X34683309Y-24876943D01*
X34683311Y-24876946D01*
X34741938Y-24955171D01*
X34762862Y-24983091D01*
X34762863Y-24983092D01*
X34764596Y-24985404D01*
X34764262Y-24985654D01*
X34795422Y-25042717D01*
X34790357Y-25113532D01*
X34747810Y-25170368D01*
X34681290Y-25195179D01*
X34672301Y-25195500D01*
X34661161Y-25195500D01*
X34593040Y-25175498D01*
X34572066Y-25158595D01*
X33616405Y-24202934D01*
X33582379Y-24140622D01*
X33579500Y-24113839D01*
X33579500Y-23327244D01*
X33572798Y-23265552D01*
X33522071Y-23130236D01*
X33516691Y-23123057D01*
X33516689Y-23123054D01*
X33440785Y-23021776D01*
X33435404Y-23014596D01*
X33399717Y-22987850D01*
X33326946Y-22933311D01*
X33326943Y-22933309D01*
X33319764Y-22927929D01*
X33210203Y-22886857D01*
X33191843Y-22879974D01*
X33191841Y-22879974D01*
X33184448Y-22877202D01*
X33176598Y-22876349D01*
X33176597Y-22876349D01*
X33126153Y-22870869D01*
X33126152Y-22870869D01*
X33122756Y-22870500D01*
X32277244Y-22870500D01*
X32273848Y-22870869D01*
X32273847Y-22870869D01*
X32223403Y-22876349D01*
X32223402Y-22876349D01*
X32215552Y-22877202D01*
X32208161Y-22879973D01*
X32208160Y-22879973D01*
X32207351Y-22880276D01*
X32203622Y-22881674D01*
X32132816Y-22886857D01*
X32070447Y-22852936D01*
X32036318Y-22790681D01*
X32041265Y-22719857D01*
X32083717Y-22662950D01*
X32099008Y-22653105D01*
X32154829Y-22622624D01*
X32166776Y-22616101D01*
X32183123Y-22608635D01*
X32377705Y-22536060D01*
X32399650Y-22527875D01*
X32416899Y-22522810D01*
X32642715Y-22473687D01*
X32660509Y-22471129D01*
X32864674Y-22456527D01*
X32875419Y-22457198D01*
X32875419Y-22456555D01*
X32887829Y-22456555D01*
X32900000Y-22458976D01*
X32912847Y-22456421D01*
X32937425Y-22454000D01*
X40640498Y-22454000D01*
X40708619Y-22474002D01*
G37*
%TD.AperFunction*%
%TA.AperFunction,Conductor*%
G36*
X57807501Y-27148715D02*
G01*
X57864337Y-27191262D01*
X57869717Y-27199418D01*
X57871970Y-27204858D01*
X57968866Y-27331134D01*
X57975416Y-27336160D01*
X58080064Y-27416460D01*
X58095142Y-27428030D01*
X58102772Y-27431190D01*
X58102773Y-27431191D01*
X58234566Y-27485781D01*
X58234570Y-27485782D01*
X58242194Y-27488940D01*
X58250376Y-27490017D01*
X58250379Y-27490018D01*
X58290447Y-27495293D01*
X58355374Y-27524016D01*
X58394465Y-27583281D01*
X58400000Y-27620215D01*
X58400000Y-28474000D01*
X58379998Y-28542121D01*
X58326342Y-28588614D01*
X58274000Y-28600000D01*
X57781650Y-28600000D01*
X57713529Y-28579998D01*
X57667036Y-28526342D01*
X57656728Y-28490446D01*
X57644394Y-28396758D01*
X57640156Y-28380940D01*
X57588991Y-28257418D01*
X57580804Y-28243237D01*
X57499413Y-28137165D01*
X57487833Y-28125586D01*
X57453738Y-28099424D01*
X57411870Y-28042086D01*
X57404711Y-28007700D01*
X57404500Y-28004480D01*
X57404500Y-28000356D01*
X57401924Y-27980789D01*
X57399681Y-27963749D01*
X57399680Y-27963746D01*
X57398422Y-27954189D01*
X57394349Y-27945454D01*
X57394348Y-27945451D01*
X57355837Y-27862864D01*
X57355836Y-27862863D01*
X57351177Y-27852871D01*
X57272129Y-27773823D01*
X57272946Y-27773006D01*
X57235383Y-27726010D01*
X57228075Y-27655390D01*
X57262888Y-27589162D01*
X57674374Y-27177676D01*
X57736686Y-27143650D01*
X57807501Y-27148715D01*
G37*
%TD.AperFunction*%
%TA.AperFunction,Conductor*%
G36*
X52639523Y-26441240D02*
G01*
X52656568Y-26459234D01*
X52669519Y-26475929D01*
X52774074Y-26580484D01*
X52786501Y-26590124D01*
X52913780Y-26665396D01*
X52928216Y-26671643D01*
X53076153Y-26714623D01*
X53135989Y-26752836D01*
X53165666Y-26817333D01*
X53167000Y-26835620D01*
X53167000Y-27545772D01*
X53167538Y-27553984D01*
X53170707Y-27578055D01*
X53159767Y-27648204D01*
X53112638Y-27701302D01*
X53045785Y-27720500D01*
X52916420Y-27720500D01*
X52892472Y-27717951D01*
X52890807Y-27717872D01*
X52880624Y-27715680D01*
X52870283Y-27716904D01*
X52847277Y-27719627D01*
X52832467Y-27720500D01*
X52475356Y-27720500D01*
X52429189Y-27726578D01*
X52424324Y-27728846D01*
X52355633Y-27728709D01*
X52295984Y-27690205D01*
X52266621Y-27625566D01*
X52276866Y-27555312D01*
X52302279Y-27518789D01*
X52335046Y-27486022D01*
X52335049Y-27486018D01*
X52357837Y-27463230D01*
X52367966Y-27443351D01*
X52378295Y-27426496D01*
X52385586Y-27416460D01*
X52391416Y-27408436D01*
X52398312Y-27387211D01*
X52405878Y-27368945D01*
X52411508Y-27357895D01*
X52416009Y-27349062D01*
X52419500Y-27327020D01*
X52424116Y-27307794D01*
X52427946Y-27296007D01*
X52427946Y-27296005D01*
X52431011Y-27286573D01*
X52431011Y-26536464D01*
X52451013Y-26468343D01*
X52504669Y-26421850D01*
X52574943Y-26411746D01*
X52639523Y-26441240D01*
G37*
%TD.AperFunction*%
%TA.AperFunction,Conductor*%
G36*
X51368808Y-27005609D02*
G01*
X51382847Y-27007458D01*
X51447774Y-27036182D01*
X51486864Y-27095448D01*
X51487707Y-27166440D01*
X51455493Y-27221475D01*
X51446203Y-27230765D01*
X51383891Y-27264791D01*
X51313076Y-27259726D01*
X51268013Y-27230765D01*
X51256994Y-27219746D01*
X51259192Y-27217548D01*
X51226031Y-27172135D01*
X51221809Y-27101264D01*
X51256572Y-27039361D01*
X51319285Y-27006080D01*
X51361050Y-27004588D01*
X51368808Y-27005609D01*
G37*
%TD.AperFunction*%
%TA.AperFunction,Conductor*%
G36*
X50859191Y-26694392D02*
G01*
X50880795Y-26716359D01*
X50968866Y-26831134D01*
X50980505Y-26840065D01*
X50982258Y-26841410D01*
X51024124Y-26898749D01*
X51028344Y-26969620D01*
X50993579Y-27031522D01*
X50930865Y-27064802D01*
X50899894Y-27066924D01*
X50899894Y-27067000D01*
X50898782Y-27067000D01*
X50897308Y-27067101D01*
X50895768Y-27067000D01*
X50330500Y-27067000D01*
X50262379Y-27046998D01*
X50215886Y-26993342D01*
X50204500Y-26941000D01*
X50204500Y-26830500D01*
X50224502Y-26762379D01*
X50278158Y-26715886D01*
X50330500Y-26704500D01*
X50644066Y-26704500D01*
X50653498Y-26701435D01*
X50653500Y-26701435D01*
X50665287Y-26697605D01*
X50684513Y-26692989D01*
X50696762Y-26691049D01*
X50706555Y-26689498D01*
X50723630Y-26680798D01*
X50793406Y-26667693D01*
X50859191Y-26694392D01*
G37*
%TD.AperFunction*%
%TA.AperFunction,Conductor*%
G36*
X53903403Y-22474002D02*
G01*
X53949896Y-22527658D01*
X53960000Y-22597932D01*
X53930506Y-22662512D01*
X53911987Y-22679961D01*
X53893866Y-22693866D01*
X53888840Y-22700416D01*
X53806621Y-22807565D01*
X53796970Y-22820142D01*
X53793810Y-22827772D01*
X53793809Y-22827773D01*
X53739219Y-22959566D01*
X53739218Y-22959570D01*
X53736060Y-22967194D01*
X53715284Y-23125000D01*
X53736060Y-23282806D01*
X53739218Y-23290430D01*
X53739219Y-23290434D01*
X53775842Y-23378849D01*
X53796970Y-23429858D01*
X53801996Y-23436408D01*
X53803620Y-23439221D01*
X53820500Y-23502219D01*
X53820500Y-23597180D01*
X53800498Y-23665301D01*
X53770065Y-23698006D01*
X53757456Y-23707456D01*
X53740025Y-23730714D01*
X53680465Y-23810183D01*
X53680463Y-23810186D01*
X53675083Y-23817365D01*
X53671933Y-23825769D01*
X53671932Y-23825770D01*
X53633469Y-23928374D01*
X53626870Y-23945976D01*
X53626017Y-23953826D01*
X53626017Y-23953827D01*
X53621000Y-24000010D01*
X53620500Y-24004611D01*
X53620501Y-24595388D01*
X53620870Y-24598782D01*
X53620870Y-24598788D01*
X53624961Y-24636448D01*
X53626870Y-24654024D01*
X53635166Y-24676153D01*
X53669289Y-24767178D01*
X53675083Y-24782635D01*
X53680463Y-24789814D01*
X53680465Y-24789817D01*
X53739061Y-24868000D01*
X53757456Y-24892544D01*
X53764198Y-24897597D01*
X53798093Y-24959669D01*
X53793028Y-25030484D01*
X53750481Y-25087320D01*
X53683961Y-25112131D01*
X53639819Y-25107449D01*
X53591395Y-25093381D01*
X53577295Y-25093421D01*
X53574000Y-25100691D01*
X53574000Y-26028000D01*
X53553998Y-26096121D01*
X53500342Y-26142614D01*
X53448000Y-26154000D01*
X53192000Y-26154000D01*
X53123879Y-26133998D01*
X53077386Y-26080342D01*
X53066000Y-26028000D01*
X53066000Y-25110680D01*
X53086002Y-25042559D01*
X53094792Y-25030817D01*
X53114961Y-24961395D01*
X53114921Y-24947295D01*
X53107651Y-24944000D01*
X52076115Y-24944000D01*
X52038071Y-24955171D01*
X52016716Y-24968895D01*
X51981216Y-24974000D01*
X49634821Y-24974000D01*
X49586604Y-24964409D01*
X49465434Y-24914219D01*
X49465430Y-24914218D01*
X49457806Y-24911060D01*
X49300000Y-24890284D01*
X49142194Y-24911060D01*
X49134570Y-24914218D01*
X49134566Y-24914219D01*
X49002773Y-24968809D01*
X48995142Y-24971970D01*
X48988589Y-24976998D01*
X48988380Y-24977119D01*
X48925380Y-24994000D01*
X48272000Y-24994000D01*
X48203879Y-24973998D01*
X48157386Y-24920342D01*
X48146000Y-24868000D01*
X48146000Y-24612000D01*
X48166002Y-24543879D01*
X48219658Y-24497386D01*
X48272000Y-24486000D01*
X49193558Y-24486000D01*
X49243585Y-24471311D01*
X49244786Y-24470539D01*
X49289092Y-24465744D01*
X49292744Y-24466000D01*
X51413885Y-24466000D01*
X51451929Y-24454829D01*
X51473284Y-24441105D01*
X51508784Y-24436000D01*
X52027885Y-24436000D01*
X52043124Y-24431525D01*
X52044329Y-24430135D01*
X52046000Y-24422452D01*
X52046000Y-24417885D01*
X52554000Y-24417885D01*
X52558475Y-24433124D01*
X52559865Y-24434329D01*
X52567548Y-24436000D01*
X53101900Y-24436000D01*
X53115431Y-24432027D01*
X53116566Y-24424129D01*
X53082019Y-24305217D01*
X53075770Y-24290778D01*
X53001146Y-24164595D01*
X52991499Y-24152159D01*
X52887841Y-24048501D01*
X52875405Y-24038854D01*
X52749222Y-23964230D01*
X52734783Y-23957981D01*
X52592564Y-23916662D01*
X52579977Y-23914363D01*
X52572057Y-23913740D01*
X52556970Y-23916910D01*
X52554000Y-23928374D01*
X52554000Y-24417885D01*
X52046000Y-24417885D01*
X52046000Y-23930434D01*
X52041656Y-23915639D01*
X52029997Y-23913579D01*
X52020023Y-23914363D01*
X52007436Y-23916662D01*
X51865217Y-23957981D01*
X51850780Y-23964229D01*
X51790413Y-23999930D01*
X51721596Y-24017390D01*
X51662133Y-23999930D01*
X51636220Y-23984605D01*
X51616576Y-23976104D01*
X51562002Y-23930693D01*
X51540642Y-23862985D01*
X51558841Y-23795195D01*
X51571079Y-23774988D01*
X51577285Y-23761243D01*
X51624256Y-23611356D01*
X51626869Y-23598306D01*
X51632734Y-23534479D01*
X51633000Y-23528691D01*
X51633000Y-23472115D01*
X51628525Y-23456876D01*
X51627135Y-23455671D01*
X51619452Y-23454000D01*
X50597000Y-23454000D01*
X50528879Y-23433998D01*
X50482386Y-23380342D01*
X50471000Y-23328000D01*
X50471000Y-23072000D01*
X50491002Y-23003879D01*
X50544658Y-22957386D01*
X50597000Y-22946000D01*
X51614884Y-22946000D01*
X51630123Y-22941525D01*
X51631328Y-22940135D01*
X51632999Y-22932452D01*
X51632999Y-22871295D01*
X51632736Y-22865546D01*
X51626868Y-22801685D01*
X51624257Y-22788649D01*
X51577286Y-22638761D01*
X51574166Y-22631851D01*
X51564363Y-22561534D01*
X51594133Y-22497080D01*
X51654023Y-22458953D01*
X51689003Y-22454000D01*
X53835282Y-22454000D01*
X53903403Y-22474002D01*
G37*
%TD.AperFunction*%
%TA.AperFunction,Conductor*%
G36*
X58742121Y-22474002D02*
G01*
X58788614Y-22527658D01*
X58800000Y-22580000D01*
X58800000Y-24133264D01*
X58779998Y-24201385D01*
X58726342Y-24247878D01*
X58656068Y-24257982D01*
X58638847Y-24254261D01*
X58578359Y-24236688D01*
X58570391Y-24235232D01*
X58556969Y-24238052D01*
X58554000Y-24249513D01*
X58554000Y-25148000D01*
X58533998Y-25216121D01*
X58480342Y-25262614D01*
X58428000Y-25274000D01*
X57515824Y-25274000D01*
X57447703Y-25253998D01*
X57436762Y-25245808D01*
X57428452Y-25244000D01*
X57072000Y-25244000D01*
X57003879Y-25223998D01*
X56957386Y-25170342D01*
X56946000Y-25118000D01*
X56946000Y-24717885D01*
X57454000Y-24717885D01*
X57458475Y-24733124D01*
X57459865Y-24734329D01*
X57467548Y-24736000D01*
X58027885Y-24736000D01*
X58043124Y-24731525D01*
X58044329Y-24730135D01*
X58046000Y-24722452D01*
X58046000Y-24251576D01*
X58041656Y-24236781D01*
X58031225Y-24234937D01*
X58021641Y-24236688D01*
X57878216Y-24278357D01*
X57863782Y-24284604D01*
X57837867Y-24299930D01*
X57769051Y-24317390D01*
X57709587Y-24299930D01*
X57649220Y-24264229D01*
X57634783Y-24257981D01*
X57492564Y-24216662D01*
X57479977Y-24214363D01*
X57472057Y-24213740D01*
X57456970Y-24216910D01*
X57454000Y-24228374D01*
X57454000Y-24717885D01*
X56946000Y-24717885D01*
X56946000Y-24230434D01*
X56941656Y-24215639D01*
X56937072Y-24214829D01*
X56873471Y-24183277D01*
X56837026Y-24122349D01*
X56833000Y-24090752D01*
X56833000Y-24004562D01*
X56832663Y-23998047D01*
X56823106Y-23905943D01*
X56820212Y-23892544D01*
X56770619Y-23743893D01*
X56764445Y-23730714D01*
X56682212Y-23597827D01*
X56673176Y-23586426D01*
X56562571Y-23476014D01*
X56551160Y-23467002D01*
X56418120Y-23384996D01*
X56404939Y-23378849D01*
X56256186Y-23329509D01*
X56242810Y-23326642D01*
X56151903Y-23317328D01*
X56146874Y-23317071D01*
X56131876Y-23321475D01*
X56130671Y-23322865D01*
X56129000Y-23330548D01*
X56129000Y-24428000D01*
X56108998Y-24496121D01*
X56055342Y-24542614D01*
X56003000Y-24554000D01*
X55747000Y-24554000D01*
X55678879Y-24533998D01*
X55632386Y-24480342D01*
X55621000Y-24428000D01*
X55621000Y-23335115D01*
X55616525Y-23319876D01*
X55615135Y-23318671D01*
X55607452Y-23317000D01*
X55604562Y-23317000D01*
X55598047Y-23317337D01*
X55505943Y-23326894D01*
X55492544Y-23329788D01*
X55343893Y-23379381D01*
X55330714Y-23385555D01*
X55197827Y-23467788D01*
X55186426Y-23476824D01*
X55076014Y-23587429D01*
X55067002Y-23598840D01*
X55062760Y-23605722D01*
X55009988Y-23653215D01*
X54939916Y-23664639D01*
X54874792Y-23636365D01*
X54835293Y-23577371D01*
X54829500Y-23539606D01*
X54829500Y-23502219D01*
X54846380Y-23439221D01*
X54848004Y-23436408D01*
X54853030Y-23429858D01*
X54874158Y-23378849D01*
X54910781Y-23290434D01*
X54910782Y-23290430D01*
X54913940Y-23282806D01*
X54934716Y-23125000D01*
X54913940Y-22967194D01*
X54910782Y-22959570D01*
X54910781Y-22959566D01*
X54856191Y-22827773D01*
X54856190Y-22827772D01*
X54853030Y-22820142D01*
X54843380Y-22807565D01*
X54761160Y-22700416D01*
X54756134Y-22693866D01*
X54738014Y-22679962D01*
X54696147Y-22622624D01*
X54691925Y-22551753D01*
X54726689Y-22489851D01*
X54789402Y-22456569D01*
X54814718Y-22454000D01*
X58674000Y-22454000D01*
X58742121Y-22474002D01*
G37*
%TD.AperFunction*%
%TD*%
%TA.AperFunction,Conductor*%
%TO.N,GND*%
G36*
X53496189Y-25621566D02*
G01*
X53494394Y-25627746D01*
X53493890Y-25634151D01*
X53493889Y-25634156D01*
X53491693Y-25662060D01*
X53491500Y-25664516D01*
X53491500Y-26135484D01*
X53494394Y-26172254D01*
X53540106Y-26329597D01*
X53544141Y-26336419D01*
X53544141Y-26336420D01*
X53623512Y-26470629D01*
X53620643Y-26472326D01*
X53641008Y-26524216D01*
X53641500Y-26535338D01*
X53641500Y-27203932D01*
X53641968Y-27207635D01*
X53626295Y-27276829D01*
X53575666Y-27326600D01*
X53516228Y-27341500D01*
X53501866Y-27341500D01*
X53439684Y-27348255D01*
X53303295Y-27399385D01*
X53296110Y-27404770D01*
X53296108Y-27404771D01*
X53247333Y-27441326D01*
X53180826Y-27466174D01*
X53171768Y-27466500D01*
X52941278Y-27466500D01*
X52930081Y-27465972D01*
X52922591Y-27464298D01*
X52914672Y-27464547D01*
X52854497Y-27466439D01*
X52850537Y-27466501D01*
X52806162Y-27466501D01*
X52738041Y-27446499D01*
X52691548Y-27392843D01*
X52681444Y-27322569D01*
X52682625Y-27316652D01*
X52683039Y-27313376D01*
X52685011Y-27305695D01*
X52685011Y-27284248D01*
X52686562Y-27264538D01*
X52688677Y-27251184D01*
X52689917Y-27243355D01*
X52685570Y-27197366D01*
X52685011Y-27185511D01*
X52685011Y-26600000D01*
X52900000Y-26600000D01*
X52900000Y-26340047D01*
X52997506Y-26242541D01*
X53010526Y-26220525D01*
X53076234Y-26109419D01*
X53076234Y-26109418D01*
X53080269Y-26102596D01*
X53125629Y-25946466D01*
X53128500Y-25909989D01*
X53128499Y-25600000D01*
X53502454Y-25600000D01*
X53496189Y-25621566D01*
G37*
%TD.AperFunction*%
%TD*%
M02*
