M48
; DRILL file {KiCad (6.0.1)} date Tue Jan 10 16:42:01 2023
; FORMAT={3:3/ absolute / metric / suppress leading zeros}
; #@! TF.CreationDate,2023-01-10T16:42:01+03:00
; #@! TF.GenerationSoftware,Kicad,Pcbnew,(6.0.1)
; #@! TF.FileFunction,MixedPlating,1,4
FMAT,2
METRIC,TZ
; #@! TA.AperFunction,Plated,PTH,ViaDrill
T1C0.400
; #@! TA.AperFunction,Plated,PTH,ComponentDrill
T2C0.650
%
G90
G05
T1
X33700Y-36300
X36800Y-28400
X36800Y-31800
X37000Y-32700
X37850Y-28750
X38000Y-32700
X38300Y-30500
X39400Y-32700
X40500Y-30500
X40700Y-27100
X40800Y-28100
X42200Y-24700
X43000Y-28500
X44000Y-28500
X44600Y-26300
X45613Y-32088
X47300Y-25900
X47500Y-33100
X48000Y-28300
X48000Y-29400
X48000Y-30500
X49300Y-25500
X51000Y-27200
X51400Y-26400
X51800Y-23900
X51800Y-29400
X51800Y-31200
X51900Y-22800
X52000Y-32500
X52700Y-33500
X52900Y-24100
X53000Y-22800
X53320Y-25120
X54200Y-28600
X54200Y-29600
X54325Y-23125
X54660Y-32500
X55400Y-28600
X55400Y-29600
X55875Y-23225
X57200Y-24200
X58000Y-28200
X58200Y-36200
X58300Y-24200
X58400Y-26900
X60200Y-23000
X60200Y-25000
X60200Y-27700
X60200Y-32200
X60200Y-34300
X60200Y-36200
X63000Y-23000
X63000Y-36200
X63200Y-30900
X63200Y-31900
X64300Y-27200
X65400Y-23000
X65400Y-36200
X66100Y-25600
X66100Y-33800
X67000Y-25600
X67388Y-36200
X67400Y-23000
X67400Y-33800
X67900Y-25600
X68400Y-33800
X69200Y-25000
X69300Y-34400
T2
X38120Y-34200
X38120Y-35470
X39390Y-34200
X39390Y-35470
X40660Y-34200
X40660Y-35470
X41930Y-34200
X41930Y-35470
X43200Y-34200
X43200Y-35470
T0
M30
